<svg xmlns="http://www.w3.org/2000/svg" xmlns:xlink="http://www.w3.org/1999/xlink" width="1080" zoomAndPan="magnify" viewBox="0 0 810 809.999993" height="1080" preserveAspectRatio="xMidYMid meet" version="1.0"><defs><g/></defs><g fill="#000000" fill-opacity="1"><g transform="translate(42.151589, 391.881601)"><g><path d="M 4.359375 0 L 4.359375 -27.875 L 19.328125 -27.875 L 19.328125 -27 L 5.234375 -27 L 5.234375 -14.375 L 18.015625 -14.375 L 18.015625 -13.5 L 5.234375 -13.5 L 5.234375 0 Z M 4.359375 0 "/></g></g></g><g fill="#000000" fill-opacity="1"><g transform="translate(64.585102, 391.881601)"><g><path d="M 11.546875 0.4375 C 9.722656 0.4375 8.125 -0.0351562 6.75 -0.984375 C 5.382812 -1.941406 4.328125 -3.238281 3.578125 -4.875 C 2.828125 -6.507812 2.453125 -8.351562 2.453125 -10.40625 C 2.453125 -12.445312 2.828125 -14.285156 3.578125 -15.921875 C 4.335938 -17.554688 5.367188 -18.847656 6.671875 -19.796875 C 7.984375 -20.753906 9.460938 -21.234375 11.109375 -21.234375 C 12.734375 -21.234375 14.1875 -20.78125 15.46875 -19.875 C 16.757812 -18.976562 17.78125 -17.78125 18.53125 -16.28125 C 19.28125 -14.78125 19.65625 -13.128906 19.65625 -11.328125 L 19.65625 -10.453125 L 3.328125 -10.453125 C 3.328125 -8.628906 3.644531 -6.957031 4.28125 -5.4375 C 4.925781 -3.925781 5.859375 -2.710938 7.078125 -1.796875 C 8.304688 -0.890625 9.796875 -0.4375 11.546875 -0.4375 C 12.828125 -0.4375 13.90625 -0.660156 14.78125 -1.109375 C 15.664062 -1.566406 16.367188 -2.085938 16.890625 -2.671875 C 17.421875 -3.265625 17.816406 -3.769531 18.078125 -4.1875 L 18.78125 -3.703125 C 18.46875 -3.171875 18.003906 -2.582031 17.390625 -1.9375 C 16.773438 -1.300781 15.984375 -0.742188 15.015625 -0.265625 C 14.054688 0.203125 12.898438 0.4375 11.546875 0.4375 Z M 3.34375 -11.328125 L 18.78125 -11.328125 C 18.78125 -13.003906 18.4375 -14.523438 17.75 -15.890625 C 17.0625 -17.253906 16.132812 -18.335938 14.96875 -19.140625 C 13.8125 -19.953125 12.523438 -20.359375 11.109375 -20.359375 C 9.734375 -20.359375 8.476562 -19.960938 7.34375 -19.171875 C 6.21875 -18.390625 5.300781 -17.316406 4.59375 -15.953125 C 3.882812 -14.597656 3.46875 -13.054688 3.34375 -11.328125 Z M 3.34375 -11.328125 "/></g></g></g><g fill="#000000" fill-opacity="1"><g transform="translate(86.691906, 391.881601)"><g><path d="M 8.921875 0.4375 C 7.785156 0.4375 6.734375 0.203125 5.765625 -0.265625 C 4.796875 -0.742188 4.019531 -1.4375 3.4375 -2.34375 C 2.851562 -3.25 2.5625 -4.351562 2.5625 -5.65625 C 2.5625 -6.601562 2.769531 -7.46875 3.1875 -8.25 C 3.613281 -9.039062 4.394531 -9.710938 5.53125 -10.265625 C 6.664062 -10.828125 8.304688 -11.234375 10.453125 -11.484375 C 11.410156 -11.597656 12.316406 -11.726562 13.171875 -11.875 C 14.023438 -12.019531 14.71875 -12.234375 15.25 -12.515625 C 15.789062 -12.804688 16.0625 -13.226562 16.0625 -13.78125 L 16.0625 -15.03125 C 16.0625 -16.632812 15.519531 -17.921875 14.4375 -18.890625 C 13.363281 -19.867188 11.925781 -20.359375 10.125 -20.359375 C 8.65625 -20.359375 7.367188 -20.035156 6.265625 -19.390625 C 5.171875 -18.742188 4.40625 -17.832031 3.96875 -16.65625 L 3.15625 -16.984375 C 3.644531 -18.296875 4.519531 -19.332031 5.78125 -20.09375 C 7.039062 -20.851562 8.488281 -21.234375 10.125 -21.234375 C 12.25 -21.234375 13.914062 -20.640625 15.125 -19.453125 C 16.332031 -18.273438 16.9375 -16.800781 16.9375 -15.03125 L 16.9375 0 L 16.0625 0 L 16.0625 -4.25 L 15.953125 -4.25 C 15.296875 -2.832031 14.351562 -1.695312 13.125 -0.84375 C 11.90625 0.0078125 10.503906 0.4375 8.921875 0.4375 Z M 8.921875 -0.4375 C 10.253906 -0.4375 11.457031 -0.789062 12.53125 -1.5 C 13.613281 -2.21875 14.472656 -3.210938 15.109375 -4.484375 C 15.742188 -5.753906 16.0625 -7.234375 16.0625 -8.921875 L 16.0625 -12.09375 C 15.539062 -11.707031 14.828125 -11.40625 13.921875 -11.1875 C 13.023438 -10.976562 11.976562 -10.804688 10.78125 -10.671875 C 8.90625 -10.453125 7.429688 -10.117188 6.359375 -9.671875 C 5.296875 -9.234375 4.539062 -8.675781 4.09375 -8 C 3.65625 -7.332031 3.4375 -6.550781 3.4375 -5.65625 C 3.4375 -4.082031 3.960938 -2.816406 5.015625 -1.859375 C 6.066406 -0.910156 7.367188 -0.4375 8.921875 -0.4375 Z M 8.921875 -0.4375 "/></g></g></g><g fill="#000000" fill-opacity="1"><g transform="translate(107.437458, 391.881601)"><g><path d="M 10.234375 -20.90625 L 10.234375 -20.03125 L 5.875 -20.03125 L 5.875 -4.40625 C 5.875 -3.195312 6.265625 -2.238281 7.046875 -1.53125 C 7.835938 -0.832031 8.753906 -0.484375 9.796875 -0.484375 C 10.253906 -0.484375 10.726562 -0.578125 11.21875 -0.765625 L 11.484375 0.046875 C 11.210938 0.148438 10.945312 0.226562 10.6875 0.28125 C 10.425781 0.34375 10.128906 0.375 9.796875 0.375 C 8.503906 0.375 7.382812 -0.0507812 6.4375 -0.90625 C 5.488281 -1.769531 5.015625 -2.9375 5.015625 -4.40625 L 5.015625 -20.03125 L 1.953125 -20.03125 L 1.953125 -20.90625 L 5.015625 -20.90625 L 5.015625 -25.921875 L 5.875 -25.921875 L 5.875 -20.90625 Z M 10.234375 -20.90625 "/></g></g></g><g fill="#000000" fill-opacity="1"><g transform="translate(120.777774, 391.881601)"><g><path d="M 17.203125 -6.859375 L 17.203125 -20.90625 L 18.078125 -20.90625 L 18.078125 0 L 17.203125 0 L 17.203125 -3.328125 L 17.09375 -3.328125 C 16.601562 -2.234375 15.796875 -1.359375 14.671875 -0.703125 C 13.554688 -0.0546875 12.273438 0.265625 10.828125 0.265625 C 9.429688 0.265625 8.195312 -0.0351562 7.125 -0.640625 C 6.0625 -1.242188 5.222656 -2.082031 4.609375 -3.15625 C 4.003906 -4.226562 3.703125 -5.460938 3.703125 -6.859375 L 3.703125 -20.90625 L 4.578125 -20.90625 L 4.578125 -6.859375 C 4.578125 -5.003906 5.15625 -3.492188 6.3125 -2.328125 C 7.476562 -1.171875 8.984375 -0.59375 10.828125 -0.59375 C 12.066406 -0.59375 13.164062 -0.859375 14.125 -1.390625 C 15.082031 -1.929688 15.832031 -2.671875 16.375 -3.609375 C 16.925781 -4.554688 17.203125 -5.640625 17.203125 -6.859375 Z M 17.203125 -6.859375 "/></g></g></g><g fill="#000000" fill-opacity="1"><g transform="translate(142.557878, 391.881601)"><g><path d="M 3.703125 0 L 3.703125 -20.90625 L 4.578125 -20.90625 L 4.578125 -17.578125 L 4.6875 -17.578125 C 5.175781 -18.671875 5.976562 -19.539062 7.09375 -20.1875 C 8.21875 -20.84375 9.5 -21.171875 10.9375 -21.171875 C 11.394531 -21.171875 11.820312 -21.132812 12.21875 -21.0625 C 12.625 -21 13 -20.910156 13.34375 -20.796875 L 13.015625 -19.984375 C 12.410156 -20.203125 11.71875 -20.3125 10.9375 -20.3125 C 9.707031 -20.3125 8.613281 -20.039062 7.65625 -19.5 C 6.695312 -18.96875 5.941406 -18.226562 5.390625 -17.28125 C 4.847656 -16.34375 4.578125 -15.265625 4.578125 -14.046875 L 4.578125 0 Z M 3.703125 0 "/></g></g></g><g fill="#000000" fill-opacity="1"><g transform="translate(156.442699, 391.881601)"><g><path d="M 11.546875 0.4375 C 9.722656 0.4375 8.125 -0.0351562 6.75 -0.984375 C 5.382812 -1.941406 4.328125 -3.238281 3.578125 -4.875 C 2.828125 -6.507812 2.453125 -8.351562 2.453125 -10.40625 C 2.453125 -12.445312 2.828125 -14.285156 3.578125 -15.921875 C 4.335938 -17.554688 5.367188 -18.847656 6.671875 -19.796875 C 7.984375 -20.753906 9.460938 -21.234375 11.109375 -21.234375 C 12.734375 -21.234375 14.1875 -20.78125 15.46875 -19.875 C 16.757812 -18.976562 17.78125 -17.78125 18.53125 -16.28125 C 19.28125 -14.78125 19.65625 -13.128906 19.65625 -11.328125 L 19.65625 -10.453125 L 3.328125 -10.453125 C 3.328125 -8.628906 3.644531 -6.957031 4.28125 -5.4375 C 4.925781 -3.925781 5.859375 -2.710938 7.078125 -1.796875 C 8.304688 -0.890625 9.796875 -0.4375 11.546875 -0.4375 C 12.828125 -0.4375 13.90625 -0.660156 14.78125 -1.109375 C 15.664062 -1.566406 16.367188 -2.085938 16.890625 -2.671875 C 17.421875 -3.265625 17.816406 -3.769531 18.078125 -4.1875 L 18.78125 -3.703125 C 18.46875 -3.171875 18.003906 -2.582031 17.390625 -1.9375 C 16.773438 -1.300781 15.984375 -0.742188 15.015625 -0.265625 C 14.054688 0.203125 12.898438 0.4375 11.546875 0.4375 Z M 3.34375 -11.328125 L 18.78125 -11.328125 C 18.78125 -13.003906 18.4375 -14.523438 17.75 -15.890625 C 17.0625 -17.253906 16.132812 -18.335938 14.96875 -19.140625 C 13.8125 -19.953125 12.523438 -20.359375 11.109375 -20.359375 C 9.734375 -20.359375 8.476562 -19.960938 7.34375 -19.171875 C 6.21875 -18.390625 5.300781 -17.316406 4.59375 -15.953125 C 3.882812 -14.597656 3.46875 -13.054688 3.34375 -11.328125 Z M 3.34375 -11.328125 "/></g></g></g><g fill="#000000" fill-opacity="1"><g transform="translate(178.549503, 391.881601)"><g><path d="M 10.5 0.4375 C 8.851562 0.4375 7.425781 -0.0351562 6.21875 -0.984375 C 5.007812 -1.929688 4.078125 -3.222656 3.421875 -4.859375 C 2.773438 -6.492188 2.453125 -8.34375 2.453125 -10.40625 C 2.453125 -12.445312 2.78125 -14.285156 3.4375 -15.921875 C 4.101562 -17.554688 5.039062 -18.847656 6.25 -19.796875 C 7.457031 -20.753906 8.875 -21.234375 10.5 -21.234375 C 12.164062 -21.234375 13.625 -20.722656 14.875 -19.703125 C 16.132812 -18.691406 17.035156 -17.316406 17.578125 -15.578125 L 17.6875 -15.578125 L 17.6875 -27.875 L 18.5625 -27.875 L 18.5625 0 L 17.6875 0 L 17.6875 -5.234375 L 17.578125 -5.234375 C 17.015625 -3.503906 16.113281 -2.125 14.875 -1.09375 C 13.644531 -0.0703125 12.1875 0.4375 10.5 0.4375 Z M 10.5 -0.4375 C 11.976562 -0.4375 13.253906 -0.875 14.328125 -1.75 C 15.410156 -2.625 16.238281 -3.8125 16.8125 -5.3125 C 17.394531 -6.8125 17.6875 -8.507812 17.6875 -10.40625 C 17.6875 -12.289062 17.394531 -13.984375 16.8125 -15.484375 C 16.226562 -16.984375 15.398438 -18.171875 14.328125 -19.046875 C 13.253906 -19.921875 11.976562 -20.359375 10.5 -20.359375 C 9.03125 -20.359375 7.757812 -19.921875 6.6875 -19.046875 C 5.613281 -18.171875 4.785156 -16.984375 4.203125 -15.484375 C 3.617188 -13.984375 3.328125 -12.289062 3.328125 -10.40625 C 3.328125 -8.507812 3.613281 -6.8125 4.1875 -5.3125 C 4.769531 -3.8125 5.597656 -2.625 6.671875 -1.75 C 7.742188 -0.875 9.019531 -0.4375 10.5 -0.4375 Z M 10.5 -0.4375 "/></g></g></g><g fill="#1f4afe" fill-opacity="1"><g transform="translate(201.480768, 391.881601)"><g/></g></g><g fill="#1f4afe" fill-opacity="1"><g transform="translate(212.261917, 391.881601)"><g><path d="M 2.171875 -26.296875 L 2.171875 -27.875 L 21.703125 -27.875 L 21.703125 -26.296875 L 12.796875 -26.296875 L 12.796875 0 L 11.09375 0 L 11.09375 -26.296875 Z M 2.171875 -26.296875 "/></g></g></g><g fill="#1f4afe" fill-opacity="1"><g transform="translate(236.151975, 391.881601)"><g><path d="M 3.4375 0 L 3.4375 -20.90625 L 5.0625 -20.90625 L 5.0625 -17.640625 L 5.21875 -17.640625 C 5.664062 -18.710938 6.429688 -19.570312 7.515625 -20.21875 C 8.597656 -20.863281 9.828125 -21.1875 11.203125 -21.1875 C 11.347656 -21.1875 11.492188 -21.1875 11.640625 -21.1875 C 11.785156 -21.1875 11.921875 -21.179688 12.046875 -21.171875 L 12.046875 -19.5 C 11.929688 -19.507812 11.800781 -19.523438 11.65625 -19.546875 C 11.507812 -19.578125 11.328125 -19.59375 11.109375 -19.59375 C 9.941406 -19.59375 8.90625 -19.34375 8 -18.84375 C 7.101562 -18.34375 6.394531 -17.65625 5.875 -16.78125 C 5.363281 -15.90625 5.109375 -14.90625 5.109375 -13.78125 L 5.109375 0 Z M 3.4375 0 "/></g></g></g><g fill="#1f4afe" fill-opacity="1"><g transform="translate(249.220038, 391.881601)"><g><path d="M 8.984375 0.453125 C 7.773438 0.453125 6.671875 0.210938 5.671875 -0.265625 C 4.671875 -0.753906 3.867188 -1.457031 3.265625 -2.375 C 2.660156 -3.300781 2.359375 -4.425781 2.359375 -5.75 C 2.359375 -6.625 2.507812 -7.390625 2.8125 -8.046875 C 3.125 -8.710938 3.601562 -9.285156 4.25 -9.765625 C 4.894531 -10.253906 5.71875 -10.65625 6.71875 -10.96875 C 7.726562 -11.28125 8.929688 -11.519531 10.328125 -11.6875 C 11.390625 -11.8125 12.335938 -11.9375 13.171875 -12.0625 C 14.003906 -12.1875 14.660156 -12.378906 15.140625 -12.640625 C 15.617188 -12.910156 15.859375 -13.3125 15.859375 -13.84375 L 15.859375 -14.71875 C 15.859375 -16.238281 15.375 -17.445312 14.40625 -18.34375 C 13.445312 -19.238281 12.125 -19.6875 10.4375 -19.6875 C 8.9375 -19.6875 7.675781 -19.359375 6.65625 -18.703125 C 5.632812 -18.046875 4.921875 -17.203125 4.515625 -16.171875 L 2.953125 -16.75 C 3.347656 -17.75 3.925781 -18.578125 4.6875 -19.234375 C 5.445312 -19.898438 6.316406 -20.394531 7.296875 -20.71875 C 8.285156 -21.050781 9.320312 -21.21875 10.40625 -21.21875 C 11.332031 -21.21875 12.21875 -21.085938 13.0625 -20.828125 C 13.914062 -20.566406 14.675781 -20.164062 15.34375 -19.625 C 16.007812 -19.09375 16.535156 -18.410156 16.921875 -17.578125 C 17.316406 -16.742188 17.515625 -15.753906 17.515625 -14.609375 L 17.515625 0 L 15.859375 0 L 15.859375 -3.765625 L 15.734375 -3.765625 C 15.367188 -2.984375 14.867188 -2.273438 14.234375 -1.640625 C 13.609375 -1.003906 12.851562 -0.492188 11.96875 -0.109375 C 11.082031 0.265625 10.085938 0.453125 8.984375 0.453125 Z M 9.140625 -1.09375 C 10.453125 -1.09375 11.613281 -1.410156 12.625 -2.046875 C 13.632812 -2.691406 14.425781 -3.570312 15 -4.6875 C 15.570312 -5.800781 15.859375 -7.066406 15.859375 -8.484375 L 15.859375 -11.5625 C 15.648438 -11.375 15.347656 -11.207031 14.953125 -11.0625 C 14.554688 -10.925781 14.109375 -10.804688 13.609375 -10.703125 C 13.117188 -10.597656 12.601562 -10.503906 12.0625 -10.421875 C 11.519531 -10.347656 11 -10.28125 10.5 -10.21875 C 8.96875 -10.039062 7.722656 -9.757812 6.765625 -9.375 C 5.804688 -9 5.109375 -8.507812 4.671875 -7.90625 C 4.234375 -7.300781 4.015625 -6.566406 4.015625 -5.703125 C 4.015625 -4.273438 4.503906 -3.148438 5.484375 -2.328125 C 6.460938 -1.503906 7.679688 -1.09375 9.140625 -1.09375 Z M 9.140625 -1.09375 "/></g></g></g><g fill="#1f4afe" fill-opacity="1"><g transform="translate(270.251453, 391.881601)"><g><path d="M 5.109375 -13.5625 L 5.109375 0 L 3.4375 0 L 3.4375 -20.90625 L 5.0625 -20.90625 L 5.0625 -17.59375 L 5.234375 -17.59375 C 5.722656 -18.675781 6.503906 -19.539062 7.578125 -20.1875 C 8.660156 -20.84375 9.945312 -21.171875 11.4375 -21.171875 C 12.84375 -21.171875 14.078125 -20.867188 15.140625 -20.265625 C 16.203125 -19.671875 17.035156 -18.820312 17.640625 -17.71875 C 18.242188 -16.625 18.546875 -15.3125 18.546875 -13.78125 L 18.546875 0 L 16.890625 0 L 16.890625 -13.71875 C 16.890625 -15.5 16.359375 -16.929688 15.296875 -18.015625 C 14.242188 -19.097656 12.851562 -19.640625 11.125 -19.640625 C 9.957031 -19.640625 8.921875 -19.382812 8.015625 -18.875 C 7.109375 -18.363281 6.394531 -17.648438 5.875 -16.734375 C 5.363281 -15.828125 5.109375 -14.769531 5.109375 -13.5625 Z M 5.109375 -13.5625 "/></g></g></g><g fill="#1f4afe" fill-opacity="1"><g transform="translate(292.249364, 391.881601)"><g><path d="M 16.734375 -16.40625 L 15.1875 -16 C 14.945312 -16.757812 14.597656 -17.414062 14.140625 -17.96875 C 13.691406 -18.519531 13.125 -18.945312 12.4375 -19.25 C 11.75 -19.550781 10.929688 -19.703125 9.984375 -19.703125 C 8.441406 -19.703125 7.179688 -19.320312 6.203125 -18.5625 C 5.234375 -17.800781 4.75 -16.804688 4.75 -15.578125 C 4.75 -14.585938 5.078125 -13.765625 5.734375 -13.109375 C 6.398438 -12.460938 7.414062 -11.972656 8.78125 -11.640625 L 11.984375 -10.828125 C 13.640625 -10.421875 14.882812 -9.757812 15.71875 -8.84375 C 16.550781 -7.9375 16.96875 -6.804688 16.96875 -5.453125 C 16.96875 -4.304688 16.65625 -3.285156 16.03125 -2.390625 C 15.40625 -1.503906 14.539062 -0.8125 13.4375 -0.3125 C 12.332031 0.1875 11.050781 0.4375 9.59375 0.4375 C 7.644531 0.4375 6.039062 -0.015625 4.78125 -0.921875 C 3.53125 -1.835938 2.726562 -3.148438 2.375 -4.859375 L 3.96875 -5.265625 C 4.269531 -3.898438 4.894531 -2.863281 5.84375 -2.15625 C 6.789062 -1.445312 8.035156 -1.09375 9.578125 -1.09375 C 11.285156 -1.09375 12.660156 -1.492188 13.703125 -2.296875 C 14.753906 -3.109375 15.28125 -4.144531 15.28125 -5.40625 C 15.28125 -6.363281 14.972656 -7.171875 14.359375 -7.828125 C 13.742188 -8.492188 12.8125 -8.984375 11.5625 -9.296875 L 8.21875 -10.109375 C 6.507812 -10.523438 5.226562 -11.191406 4.375 -12.109375 C 3.53125 -13.035156 3.109375 -14.175781 3.109375 -15.53125 C 3.109375 -16.65625 3.398438 -17.644531 3.984375 -18.5 C 4.578125 -19.351562 5.390625 -20.019531 6.421875 -20.5 C 7.453125 -20.976562 8.640625 -21.21875 9.984375 -21.21875 C 11.742188 -21.21875 13.179688 -20.800781 14.296875 -19.96875 C 15.421875 -19.132812 16.234375 -17.945312 16.734375 -16.40625 Z M 16.734375 -16.40625 "/></g></g></g><g fill="#1f4afe" fill-opacity="1"><g transform="translate(311.524759, 391.881601)"><g><path d="M 11.28125 0.4375 C 9.5 0.4375 7.929688 -0.03125 6.578125 -0.96875 C 5.234375 -1.90625 4.179688 -3.191406 3.421875 -4.828125 C 2.660156 -6.460938 2.28125 -8.316406 2.28125 -10.390625 C 2.28125 -12.453125 2.660156 -14.300781 3.421875 -15.9375 C 4.191406 -17.570312 5.25 -18.859375 6.59375 -19.796875 C 7.945312 -20.742188 9.503906 -21.21875 11.265625 -21.21875 C 12.585938 -21.21875 13.796875 -20.945312 14.890625 -20.40625 C 15.984375 -19.863281 16.890625 -19.101562 17.609375 -18.125 C 18.335938 -17.15625 18.800781 -16.03125 19 -14.75 L 17.3125 -14.75 C 17.039062 -16.164062 16.363281 -17.335938 15.28125 -18.265625 C 14.195312 -19.203125 12.863281 -19.671875 11.28125 -19.671875 C 9.863281 -19.671875 8.601562 -19.269531 7.5 -18.46875 C 6.394531 -17.675781 5.523438 -16.582031 4.890625 -15.1875 C 4.253906 -13.800781 3.9375 -12.207031 3.9375 -10.40625 C 3.9375 -8.644531 4.242188 -7.0625 4.859375 -5.65625 C 5.472656 -4.25 6.332031 -3.140625 7.4375 -2.328125 C 8.550781 -1.515625 9.832031 -1.109375 11.28125 -1.109375 C 12.3125 -1.109375 13.25 -1.3125 14.09375 -1.71875 C 14.9375 -2.125 15.644531 -2.703125 16.21875 -3.453125 C 16.789062 -4.210938 17.171875 -5.09375 17.359375 -6.09375 L 19.046875 -6.09375 C 18.835938 -4.8125 18.378906 -3.675781 17.671875 -2.6875 C 16.972656 -1.707031 16.070312 -0.941406 14.96875 -0.390625 C 13.875 0.160156 12.644531 0.4375 11.28125 0.4375 Z M 11.28125 0.4375 "/></g></g></g><g fill="#1f4afe" fill-opacity="1"><g transform="translate(332.77397, 391.881601)"><g><path d="M 3.4375 0 L 3.4375 -20.90625 L 5.0625 -20.90625 L 5.0625 -17.640625 L 5.21875 -17.640625 C 5.664062 -18.710938 6.429688 -19.570312 7.515625 -20.21875 C 8.597656 -20.863281 9.828125 -21.1875 11.203125 -21.1875 C 11.347656 -21.1875 11.492188 -21.1875 11.640625 -21.1875 C 11.785156 -21.1875 11.921875 -21.179688 12.046875 -21.171875 L 12.046875 -19.5 C 11.929688 -19.507812 11.800781 -19.523438 11.65625 -19.546875 C 11.507812 -19.578125 11.328125 -19.59375 11.109375 -19.59375 C 9.941406 -19.59375 8.90625 -19.34375 8 -18.84375 C 7.101562 -18.34375 6.394531 -17.65625 5.875 -16.78125 C 5.363281 -15.90625 5.109375 -14.90625 5.109375 -13.78125 L 5.109375 0 Z M 3.4375 0 "/></g></g></g><g fill="#1f4afe" fill-opacity="1"><g transform="translate(345.842033, 391.881601)"><g><path d="M 3.53125 0 L 3.53125 -20.90625 L 5.171875 -20.90625 L 5.171875 0 Z M 4.359375 -24.609375 C 3.992188 -24.609375 3.675781 -24.734375 3.40625 -24.984375 C 3.144531 -25.242188 3.015625 -25.554688 3.015625 -25.921875 C 3.015625 -26.273438 3.144531 -26.578125 3.40625 -26.828125 C 3.664062 -27.085938 3.984375 -27.21875 4.359375 -27.21875 C 4.722656 -27.21875 5.035156 -27.085938 5.296875 -26.828125 C 5.566406 -26.578125 5.703125 -26.273438 5.703125 -25.921875 C 5.703125 -25.554688 5.566406 -25.242188 5.296875 -24.984375 C 5.035156 -24.734375 4.722656 -24.609375 4.359375 -24.609375 Z M 4.359375 -24.609375 "/></g></g></g><g fill="#1f4afe" fill-opacity="1"><g transform="translate(354.540463, 391.881601)"><g><path d="M 3.4375 7.84375 L 3.4375 -20.90625 L 5.0625 -20.90625 L 5.0625 -16.234375 L 5.265625 -16.234375 C 5.585938 -17.128906 6.046875 -17.953125 6.640625 -18.703125 C 7.242188 -19.460938 7.984375 -20.070312 8.859375 -20.53125 C 9.742188 -20.988281 10.785156 -21.21875 11.984375 -21.21875 C 13.671875 -21.21875 15.140625 -20.753906 16.390625 -19.828125 C 17.648438 -18.898438 18.625 -17.625 19.3125 -16 C 20 -14.375 20.34375 -12.507812 20.34375 -10.40625 C 20.34375 -8.289062 19.992188 -6.421875 19.296875 -4.796875 C 18.609375 -3.171875 17.640625 -1.890625 16.390625 -0.953125 C 15.140625 -0.0234375 13.679688 0.4375 12.015625 0.4375 C 10.828125 0.4375 9.785156 0.210938 8.890625 -0.234375 C 7.992188 -0.691406 7.242188 -1.300781 6.640625 -2.0625 C 6.046875 -2.820312 5.585938 -3.65625 5.265625 -4.5625 L 5.109375 -4.5625 L 5.109375 7.84375 Z M 5.078125 -10.40625 C 5.078125 -8.632812 5.347656 -7.046875 5.890625 -5.640625 C 6.429688 -4.234375 7.210938 -3.125 8.234375 -2.3125 C 9.253906 -1.507812 10.46875 -1.109375 11.875 -1.109375 C 13.289062 -1.109375 14.507812 -1.515625 15.53125 -2.328125 C 16.550781 -3.148438 17.332031 -4.265625 17.875 -5.671875 C 18.414062 -7.078125 18.6875 -8.65625 18.6875 -10.40625 C 18.6875 -12.164062 18.414062 -13.742188 17.875 -15.140625 C 17.34375 -16.535156 16.566406 -17.640625 15.546875 -18.453125 C 14.535156 -19.265625 13.3125 -19.671875 11.875 -19.671875 C 10.445312 -19.671875 9.226562 -19.269531 8.21875 -18.46875 C 7.207031 -17.664062 6.429688 -16.566406 5.890625 -15.171875 C 5.347656 -13.773438 5.078125 -12.1875 5.078125 -10.40625 Z M 5.078125 -10.40625 "/></g></g></g><g fill="#1f4afe" fill-opacity="1"><g transform="translate(377.178161, 391.881601)"><g><path d="M 10.828125 -20.90625 L 10.828125 -19.421875 L 1.703125 -19.421875 L 1.703125 -20.90625 Z M 4.796875 -25.921875 L 6.4375 -25.921875 L 6.4375 -4.9375 C 6.4375 -4.082031 6.601562 -3.382812 6.9375 -2.84375 C 7.269531 -2.3125 7.703125 -1.914062 8.234375 -1.65625 C 8.773438 -1.394531 9.359375 -1.265625 9.984375 -1.265625 C 10.273438 -1.265625 10.53125 -1.285156 10.75 -1.328125 C 10.976562 -1.378906 11.191406 -1.441406 11.390625 -1.515625 L 11.796875 0 C 11.546875 0.09375 11.265625 0.171875 10.953125 0.234375 C 10.648438 0.304688 10.289062 0.34375 9.875 0.34375 C 9 0.34375 8.171875 0.148438 7.390625 -0.234375 C 6.617188 -0.628906 5.992188 -1.195312 5.515625 -1.9375 C 5.035156 -2.6875 4.796875 -3.585938 4.796875 -4.640625 Z M 4.796875 -25.921875 "/></g></g></g><g fill="#1f4afe" fill-opacity="1"><g transform="translate(390.722661, 391.881601)"><g/></g></g><g fill="#1f4afe" fill-opacity="1"><g transform="translate(401.50381, 391.881601)"><g><path d="M 23.5625 -19.171875 C 23.351562 -20.109375 23 -21.019531 22.5 -21.90625 C 22 -22.789062 21.359375 -23.585938 20.578125 -24.296875 C 19.804688 -25.015625 18.898438 -25.582031 17.859375 -26 C 16.828125 -26.414062 15.664062 -26.625 14.375 -26.625 C 12.40625 -26.625 10.660156 -26.109375 9.140625 -25.078125 C 7.617188 -24.046875 6.425781 -22.578125 5.5625 -20.671875 C 4.707031 -18.773438 4.28125 -16.53125 4.28125 -13.9375 C 4.28125 -11.363281 4.707031 -9.125 5.5625 -7.21875 C 6.414062 -5.320312 7.609375 -3.851562 9.140625 -2.8125 C 10.679688 -1.769531 12.472656 -1.25 14.515625 -1.25 C 16.347656 -1.25 17.96875 -1.671875 19.375 -2.515625 C 20.78125 -3.359375 21.878906 -4.566406 22.671875 -6.140625 C 23.460938 -7.710938 23.847656 -9.585938 23.828125 -11.765625 L 24.4375 -11.484375 L 14.953125 -11.484375 L 14.953125 -13.0625 L 25.5 -13.0625 L 25.5 -11.484375 C 25.5 -9.023438 25.023438 -6.910156 24.078125 -5.140625 C 23.140625 -3.367188 21.84375 -2.003906 20.1875 -1.046875 C 18.53125 -0.0976562 16.640625 0.375 14.515625 0.375 C 12.117188 0.375 10.023438 -0.21875 8.234375 -1.40625 C 6.453125 -2.59375 5.066406 -4.257812 4.078125 -6.40625 C 3.097656 -8.550781 2.609375 -11.0625 2.609375 -13.9375 C 2.609375 -16.09375 2.890625 -18.050781 3.453125 -19.8125 C 4.015625 -21.570312 4.816406 -23.082031 5.859375 -24.34375 C 6.910156 -25.601562 8.15625 -26.566406 9.59375 -27.234375 C 11.039062 -27.910156 12.632812 -28.25 14.375 -28.25 C 15.945312 -28.25 17.363281 -27.988281 18.625 -27.46875 C 19.894531 -26.945312 20.988281 -26.25 21.90625 -25.375 C 22.820312 -24.5 23.566406 -23.523438 24.140625 -22.453125 C 24.710938 -21.378906 25.097656 -20.285156 25.296875 -19.171875 Z M 23.5625 -19.171875 "/></g></g></g><g fill="#1f4afe" fill-opacity="1"><g transform="translate(429.872403, 391.881601)"><g><path d="M 11.59375 0.4375 C 9.707031 0.4375 8.066406 -0.03125 6.671875 -0.96875 C 5.273438 -1.90625 4.191406 -3.179688 3.421875 -4.796875 C 2.660156 -6.421875 2.28125 -8.273438 2.28125 -10.359375 C 2.28125 -12.441406 2.664062 -14.300781 3.4375 -15.9375 C 4.207031 -17.570312 5.257812 -18.859375 6.59375 -19.796875 C 7.9375 -20.742188 9.472656 -21.21875 11.203125 -21.21875 C 12.367188 -21.21875 13.476562 -20.984375 14.53125 -20.515625 C 15.582031 -20.046875 16.507812 -19.367188 17.3125 -18.484375 C 18.113281 -17.609375 18.742188 -16.550781 19.203125 -15.3125 C 19.660156 -14.070312 19.890625 -12.675781 19.890625 -11.125 L 19.890625 -10.078125 L 3.328125 -10.078125 L 3.328125 -11.59375 L 18.21875 -11.59375 C 18.21875 -13.113281 17.910156 -14.476562 17.296875 -15.6875 C 16.679688 -16.90625 15.84375 -17.875 14.78125 -18.59375 C 13.71875 -19.3125 12.523438 -19.671875 11.203125 -19.671875 C 9.816406 -19.671875 8.578125 -19.28125 7.484375 -18.5 C 6.398438 -17.726562 5.539062 -16.679688 4.90625 -15.359375 C 4.28125 -14.046875 3.957031 -12.578125 3.9375 -10.953125 L 3.9375 -10.28125 C 3.9375 -8.53125 4.238281 -6.960938 4.84375 -5.578125 C 5.457031 -4.203125 6.335938 -3.113281 7.484375 -2.3125 C 8.628906 -1.507812 10 -1.109375 11.59375 -1.109375 C 12.738281 -1.109375 13.71875 -1.300781 14.53125 -1.6875 C 15.34375 -2.070312 16.003906 -2.539062 16.515625 -3.09375 C 17.035156 -3.644531 17.425781 -4.179688 17.6875 -4.703125 L 19.203125 -4.078125 C 18.890625 -3.378906 18.398438 -2.679688 17.734375 -1.984375 C 17.066406 -1.296875 16.222656 -0.71875 15.203125 -0.25 C 14.179688 0.207031 12.976562 0.4375 11.59375 0.4375 Z M 11.59375 0.4375 "/></g></g></g><g fill="#1f4afe" fill-opacity="1"><g transform="translate(452.047276, 391.881601)"><g><path d="M 5.109375 -13.5625 L 5.109375 0 L 3.4375 0 L 3.4375 -20.90625 L 5.0625 -20.90625 L 5.0625 -17.59375 L 5.234375 -17.59375 C 5.722656 -18.675781 6.503906 -19.539062 7.578125 -20.1875 C 8.660156 -20.84375 9.945312 -21.171875 11.4375 -21.171875 C 12.84375 -21.171875 14.078125 -20.867188 15.140625 -20.265625 C 16.203125 -19.671875 17.035156 -18.820312 17.640625 -17.71875 C 18.242188 -16.625 18.546875 -15.3125 18.546875 -13.78125 L 18.546875 0 L 16.890625 0 L 16.890625 -13.71875 C 16.890625 -15.5 16.359375 -16.929688 15.296875 -18.015625 C 14.242188 -19.097656 12.851562 -19.640625 11.125 -19.640625 C 9.957031 -19.640625 8.921875 -19.382812 8.015625 -18.875 C 7.109375 -18.363281 6.394531 -17.648438 5.875 -16.734375 C 5.363281 -15.828125 5.109375 -14.769531 5.109375 -13.5625 Z M 5.109375 -13.5625 "/></g></g></g><g fill="#1f4afe" fill-opacity="1"><g transform="translate(474.045187, 391.881601)"><g><path d="M 11.59375 0.4375 C 9.707031 0.4375 8.066406 -0.03125 6.671875 -0.96875 C 5.273438 -1.90625 4.191406 -3.179688 3.421875 -4.796875 C 2.660156 -6.421875 2.28125 -8.273438 2.28125 -10.359375 C 2.28125 -12.441406 2.664062 -14.300781 3.4375 -15.9375 C 4.207031 -17.570312 5.257812 -18.859375 6.59375 -19.796875 C 7.9375 -20.742188 9.472656 -21.21875 11.203125 -21.21875 C 12.367188 -21.21875 13.476562 -20.984375 14.53125 -20.515625 C 15.582031 -20.046875 16.507812 -19.367188 17.3125 -18.484375 C 18.113281 -17.609375 18.742188 -16.550781 19.203125 -15.3125 C 19.660156 -14.070312 19.890625 -12.675781 19.890625 -11.125 L 19.890625 -10.078125 L 3.328125 -10.078125 L 3.328125 -11.59375 L 18.21875 -11.59375 C 18.21875 -13.113281 17.910156 -14.476562 17.296875 -15.6875 C 16.679688 -16.90625 15.84375 -17.875 14.78125 -18.59375 C 13.71875 -19.3125 12.523438 -19.671875 11.203125 -19.671875 C 9.816406 -19.671875 8.578125 -19.28125 7.484375 -18.5 C 6.398438 -17.726562 5.539062 -16.679688 4.90625 -15.359375 C 4.28125 -14.046875 3.957031 -12.578125 3.9375 -10.953125 L 3.9375 -10.28125 C 3.9375 -8.53125 4.238281 -6.960938 4.84375 -5.578125 C 5.457031 -4.203125 6.335938 -3.113281 7.484375 -2.3125 C 8.628906 -1.507812 10 -1.109375 11.59375 -1.109375 C 12.738281 -1.109375 13.71875 -1.300781 14.53125 -1.6875 C 15.34375 -2.070312 16.003906 -2.539062 16.515625 -3.09375 C 17.035156 -3.644531 17.425781 -4.179688 17.6875 -4.703125 L 19.203125 -4.078125 C 18.890625 -3.378906 18.398438 -2.679688 17.734375 -1.984375 C 17.066406 -1.296875 16.222656 -0.71875 15.203125 -0.25 C 14.179688 0.207031 12.976562 0.4375 11.59375 0.4375 Z M 11.59375 0.4375 "/></g></g></g><g fill="#1f4afe" fill-opacity="1"><g transform="translate(496.22006, 391.881601)"><g><path d="M 3.4375 0 L 3.4375 -20.90625 L 5.0625 -20.90625 L 5.0625 -17.640625 L 5.21875 -17.640625 C 5.664062 -18.710938 6.429688 -19.570312 7.515625 -20.21875 C 8.597656 -20.863281 9.828125 -21.1875 11.203125 -21.1875 C 11.347656 -21.1875 11.492188 -21.1875 11.640625 -21.1875 C 11.785156 -21.1875 11.921875 -21.179688 12.046875 -21.171875 L 12.046875 -19.5 C 11.929688 -19.507812 11.800781 -19.523438 11.65625 -19.546875 C 11.507812 -19.578125 11.328125 -19.59375 11.109375 -19.59375 C 9.941406 -19.59375 8.90625 -19.34375 8 -18.84375 C 7.101562 -18.34375 6.394531 -17.65625 5.875 -16.78125 C 5.363281 -15.90625 5.109375 -14.90625 5.109375 -13.78125 L 5.109375 0 Z M 3.4375 0 "/></g></g></g><g fill="#1f4afe" fill-opacity="1"><g transform="translate(509.288122, 391.881601)"><g><path d="M 8.984375 0.453125 C 7.773438 0.453125 6.671875 0.210938 5.671875 -0.265625 C 4.671875 -0.753906 3.867188 -1.457031 3.265625 -2.375 C 2.660156 -3.300781 2.359375 -4.425781 2.359375 -5.75 C 2.359375 -6.625 2.507812 -7.390625 2.8125 -8.046875 C 3.125 -8.710938 3.601562 -9.285156 4.25 -9.765625 C 4.894531 -10.253906 5.71875 -10.65625 6.71875 -10.96875 C 7.726562 -11.28125 8.929688 -11.519531 10.328125 -11.6875 C 11.390625 -11.8125 12.335938 -11.9375 13.171875 -12.0625 C 14.003906 -12.1875 14.660156 -12.378906 15.140625 -12.640625 C 15.617188 -12.910156 15.859375 -13.3125 15.859375 -13.84375 L 15.859375 -14.71875 C 15.859375 -16.238281 15.375 -17.445312 14.40625 -18.34375 C 13.445312 -19.238281 12.125 -19.6875 10.4375 -19.6875 C 8.9375 -19.6875 7.675781 -19.359375 6.65625 -18.703125 C 5.632812 -18.046875 4.921875 -17.203125 4.515625 -16.171875 L 2.953125 -16.75 C 3.347656 -17.75 3.925781 -18.578125 4.6875 -19.234375 C 5.445312 -19.898438 6.316406 -20.394531 7.296875 -20.71875 C 8.285156 -21.050781 9.320312 -21.21875 10.40625 -21.21875 C 11.332031 -21.21875 12.21875 -21.085938 13.0625 -20.828125 C 13.914062 -20.566406 14.675781 -20.164062 15.34375 -19.625 C 16.007812 -19.09375 16.535156 -18.410156 16.921875 -17.578125 C 17.316406 -16.742188 17.515625 -15.753906 17.515625 -14.609375 L 17.515625 0 L 15.859375 0 L 15.859375 -3.765625 L 15.734375 -3.765625 C 15.367188 -2.984375 14.867188 -2.273438 14.234375 -1.640625 C 13.609375 -1.003906 12.851562 -0.492188 11.96875 -0.109375 C 11.082031 0.265625 10.085938 0.453125 8.984375 0.453125 Z M 9.140625 -1.09375 C 10.453125 -1.09375 11.613281 -1.410156 12.625 -2.046875 C 13.632812 -2.691406 14.425781 -3.570312 15 -4.6875 C 15.570312 -5.800781 15.859375 -7.066406 15.859375 -8.484375 L 15.859375 -11.5625 C 15.648438 -11.375 15.347656 -11.207031 14.953125 -11.0625 C 14.554688 -10.925781 14.109375 -10.804688 13.609375 -10.703125 C 13.117188 -10.597656 12.601562 -10.503906 12.0625 -10.421875 C 11.519531 -10.347656 11 -10.28125 10.5 -10.21875 C 8.96875 -10.039062 7.722656 -9.757812 6.765625 -9.375 C 5.804688 -9 5.109375 -8.507812 4.671875 -7.90625 C 4.234375 -7.300781 4.015625 -6.566406 4.015625 -5.703125 C 4.015625 -4.273438 4.503906 -3.148438 5.484375 -2.328125 C 6.460938 -1.503906 7.679688 -1.09375 9.140625 -1.09375 Z M 9.140625 -1.09375 "/></g></g></g><g fill="#1f4afe" fill-opacity="1"><g transform="translate(530.319538, 391.881601)"><g><path d="M 10.828125 -20.90625 L 10.828125 -19.421875 L 1.703125 -19.421875 L 1.703125 -20.90625 Z M 4.796875 -25.921875 L 6.4375 -25.921875 L 6.4375 -4.9375 C 6.4375 -4.082031 6.601562 -3.382812 6.9375 -2.84375 C 7.269531 -2.3125 7.703125 -1.914062 8.234375 -1.65625 C 8.773438 -1.394531 9.359375 -1.265625 9.984375 -1.265625 C 10.273438 -1.265625 10.53125 -1.285156 10.75 -1.328125 C 10.976562 -1.378906 11.191406 -1.441406 11.390625 -1.515625 L 11.796875 0 C 11.546875 0.09375 11.265625 0.171875 10.953125 0.234375 C 10.648438 0.304688 10.289062 0.34375 9.875 0.34375 C 9 0.34375 8.171875 0.148438 7.390625 -0.234375 C 6.617188 -0.628906 5.992188 -1.195312 5.515625 -1.9375 C 5.035156 -2.6875 4.796875 -3.585938 4.796875 -4.640625 Z M 4.796875 -25.921875 "/></g></g></g><g fill="#1f4afe" fill-opacity="1"><g transform="translate(543.864038, 391.881601)"><g><path d="M 11.21875 0.4375 C 9.488281 0.4375 7.953125 -0.0234375 6.609375 -0.953125 C 5.265625 -1.890625 4.207031 -3.171875 3.4375 -4.796875 C 2.664062 -6.429688 2.28125 -8.296875 2.28125 -10.390625 C 2.28125 -12.484375 2.664062 -14.34375 3.4375 -15.96875 C 4.207031 -17.601562 5.265625 -18.882812 6.609375 -19.8125 C 7.953125 -20.75 9.488281 -21.21875 11.21875 -21.21875 C 12.9375 -21.21875 14.46875 -20.75 15.8125 -19.8125 C 17.15625 -18.882812 18.210938 -17.601562 18.984375 -15.96875 C 19.753906 -14.332031 20.140625 -12.472656 20.140625 -10.390625 C 20.140625 -8.296875 19.753906 -6.429688 18.984375 -4.796875 C 18.210938 -3.171875 17.15625 -1.890625 15.8125 -0.953125 C 14.46875 -0.0234375 12.9375 0.4375 11.21875 0.4375 Z M 11.21875 -1.109375 C 12.675781 -1.109375 13.953125 -1.519531 15.046875 -2.34375 C 16.140625 -3.164062 16.988281 -4.28125 17.59375 -5.6875 C 18.195312 -7.09375 18.5 -8.660156 18.5 -10.390625 C 18.5 -12.109375 18.191406 -13.664062 17.578125 -15.0625 C 16.972656 -16.46875 16.125 -17.585938 15.03125 -18.421875 C 13.945312 -19.253906 12.675781 -19.671875 11.21875 -19.671875 C 9.757812 -19.671875 8.484375 -19.253906 7.390625 -18.421875 C 6.296875 -17.585938 5.445312 -16.46875 4.84375 -15.0625 C 4.238281 -13.664062 3.9375 -12.109375 3.9375 -10.390625 C 3.9375 -8.660156 4.238281 -7.09375 4.84375 -5.6875 C 5.445312 -4.28125 6.296875 -3.164062 7.390625 -2.34375 C 8.484375 -1.519531 9.757812 -1.109375 11.21875 -1.109375 Z M 11.21875 -1.109375 "/></g></g></g><g fill="#1f4afe" fill-opacity="1"><g transform="translate(566.297562, 391.881601)"><g><path d="M 3.4375 0 L 3.4375 -20.90625 L 5.0625 -20.90625 L 5.0625 -17.640625 L 5.21875 -17.640625 C 5.664062 -18.710938 6.429688 -19.570312 7.515625 -20.21875 C 8.597656 -20.863281 9.828125 -21.1875 11.203125 -21.1875 C 11.347656 -21.1875 11.492188 -21.1875 11.640625 -21.1875 C 11.785156 -21.1875 11.921875 -21.179688 12.046875 -21.171875 L 12.046875 -19.5 C 11.929688 -19.507812 11.800781 -19.523438 11.65625 -19.546875 C 11.507812 -19.578125 11.328125 -19.59375 11.109375 -19.59375 C 9.941406 -19.59375 8.90625 -19.34375 8 -18.84375 C 7.101562 -18.34375 6.394531 -17.65625 5.875 -16.78125 C 5.363281 -15.90625 5.109375 -14.90625 5.109375 -13.78125 L 5.109375 0 Z M 3.4375 0 "/></g></g></g><g fill="#000000" fill-opacity="1"><g transform="translate(579.37372, 391.881601)"><g/></g></g><g fill="#000000" fill-opacity="1"><g transform="translate(590.1559, 391.881601)"><g><path d="M 10.234375 -20.90625 L 10.234375 -20.03125 L 5.875 -20.03125 L 5.875 -4.40625 C 5.875 -3.195312 6.265625 -2.238281 7.046875 -1.53125 C 7.835938 -0.832031 8.753906 -0.484375 9.796875 -0.484375 C 10.253906 -0.484375 10.726562 -0.578125 11.21875 -0.765625 L 11.484375 0.046875 C 11.210938 0.148438 10.945312 0.226562 10.6875 0.28125 C 10.425781 0.34375 10.128906 0.375 9.796875 0.375 C 8.503906 0.375 7.382812 -0.0507812 6.4375 -0.90625 C 5.488281 -1.769531 5.015625 -2.9375 5.015625 -4.40625 L 5.015625 -20.03125 L 1.953125 -20.03125 L 1.953125 -20.90625 L 5.015625 -20.90625 L 5.015625 -25.921875 L 5.875 -25.921875 L 5.875 -20.90625 Z M 10.234375 -20.90625 "/></g></g></g><g fill="#000000" fill-opacity="1"><g transform="translate(603.496216, 391.881601)"><g><path d="M 11.109375 0.4375 C 9.460938 0.4375 7.984375 -0.0351562 6.671875 -0.984375 C 5.367188 -1.929688 4.335938 -3.222656 3.578125 -4.859375 C 2.828125 -6.503906 2.453125 -8.351562 2.453125 -10.40625 C 2.453125 -12.457031 2.828125 -14.300781 3.578125 -15.9375 C 4.335938 -17.570312 5.367188 -18.863281 6.671875 -19.8125 C 7.984375 -20.757812 9.460938 -21.234375 11.109375 -21.234375 C 12.742188 -21.234375 14.210938 -20.753906 15.515625 -19.796875 C 16.816406 -18.847656 17.847656 -17.554688 18.609375 -15.921875 C 19.378906 -14.285156 19.765625 -12.445312 19.765625 -10.40625 C 19.765625 -8.351562 19.382812 -6.503906 18.625 -4.859375 C 17.863281 -3.222656 16.828125 -1.929688 15.515625 -0.984375 C 14.210938 -0.0351562 12.742188 0.4375 11.109375 0.4375 Z M 11.109375 -0.4375 C 12.585938 -0.4375 13.910156 -0.867188 15.078125 -1.734375 C 16.253906 -2.609375 17.179688 -3.796875 17.859375 -5.296875 C 18.546875 -6.804688 18.890625 -8.507812 18.890625 -10.40625 C 18.890625 -12.289062 18.546875 -13.984375 17.859375 -15.484375 C 17.179688 -16.984375 16.253906 -18.171875 15.078125 -19.046875 C 13.910156 -19.921875 12.585938 -20.359375 11.109375 -20.359375 C 9.640625 -20.359375 8.316406 -19.921875 7.140625 -19.046875 C 5.960938 -18.171875 5.03125 -16.984375 4.34375 -15.484375 C 3.664062 -13.984375 3.328125 -12.289062 3.328125 -10.40625 C 3.328125 -8.507812 3.664062 -6.804688 4.34375 -5.296875 C 5.019531 -3.796875 5.945312 -2.609375 7.125 -1.734375 C 8.300781 -0.867188 9.628906 -0.4375 11.109375 -0.4375 Z M 11.109375 -0.4375 "/></g></g></g><g fill="#000000" fill-opacity="1"><g transform="translate(625.714632, 391.881601)"><g/></g></g><g fill="#000000" fill-opacity="1"><g transform="translate(636.495781, 391.881601)"><g/></g></g><g fill="#000000" fill-opacity="1"><g transform="translate(647.278992, 391.881601)"><g><path d="M 11.546875 0.4375 C 9.722656 0.4375 8.125 -0.0351562 6.75 -0.984375 C 5.382812 -1.941406 4.328125 -3.238281 3.578125 -4.875 C 2.828125 -6.507812 2.453125 -8.351562 2.453125 -10.40625 C 2.453125 -12.445312 2.828125 -14.285156 3.578125 -15.921875 C 4.335938 -17.554688 5.367188 -18.847656 6.671875 -19.796875 C 7.984375 -20.753906 9.460938 -21.234375 11.109375 -21.234375 C 12.734375 -21.234375 14.1875 -20.78125 15.46875 -19.875 C 16.757812 -18.976562 17.78125 -17.78125 18.53125 -16.28125 C 19.28125 -14.78125 19.65625 -13.128906 19.65625 -11.328125 L 19.65625 -10.453125 L 3.328125 -10.453125 C 3.328125 -8.628906 3.644531 -6.957031 4.28125 -5.4375 C 4.925781 -3.925781 5.859375 -2.710938 7.078125 -1.796875 C 8.304688 -0.890625 9.796875 -0.4375 11.546875 -0.4375 C 12.828125 -0.4375 13.90625 -0.660156 14.78125 -1.109375 C 15.664062 -1.566406 16.367188 -2.085938 16.890625 -2.671875 C 17.421875 -3.265625 17.816406 -3.769531 18.078125 -4.1875 L 18.78125 -3.703125 C 18.46875 -3.171875 18.003906 -2.582031 17.390625 -1.9375 C 16.773438 -1.300781 15.984375 -0.742188 15.015625 -0.265625 C 14.054688 0.203125 12.898438 0.4375 11.546875 0.4375 Z M 3.34375 -11.328125 L 18.78125 -11.328125 C 18.78125 -13.003906 18.4375 -14.523438 17.75 -15.890625 C 17.0625 -17.253906 16.132812 -18.335938 14.96875 -19.140625 C 13.8125 -19.953125 12.523438 -20.359375 11.109375 -20.359375 C 9.734375 -20.359375 8.476562 -19.960938 7.34375 -19.171875 C 6.21875 -18.390625 5.300781 -17.316406 4.59375 -15.953125 C 3.882812 -14.597656 3.46875 -13.054688 3.34375 -11.328125 Z M 3.34375 -11.328125 "/></g></g></g><g fill="#000000" fill-opacity="1"><g transform="translate(669.385796, 391.881601)"><g><path d="M 4.578125 -14.046875 L 4.578125 0 L 3.703125 0 L 3.703125 -20.90625 L 4.578125 -20.90625 L 4.578125 -17.578125 L 4.6875 -17.578125 C 5.175781 -18.671875 5.976562 -19.539062 7.09375 -20.1875 C 8.21875 -20.84375 9.5 -21.171875 10.9375 -21.171875 C 12.34375 -21.171875 13.578125 -20.867188 14.640625 -20.265625 C 15.710938 -19.660156 16.550781 -18.820312 17.15625 -17.75 C 17.769531 -16.675781 18.078125 -15.441406 18.078125 -14.046875 L 18.078125 0 L 17.203125 0 L 17.203125 -14.046875 C 17.203125 -15.898438 16.617188 -17.40625 15.453125 -18.5625 C 14.296875 -19.726562 12.789062 -20.3125 10.9375 -20.3125 C 9.707031 -20.3125 8.613281 -20.039062 7.65625 -19.5 C 6.695312 -18.96875 5.941406 -18.226562 5.390625 -17.28125 C 4.847656 -16.34375 4.578125 -15.265625 4.578125 -14.046875 Z M 4.578125 -14.046875 "/></g></g></g><g fill="#000000" fill-opacity="1"><g transform="translate(691.165901, 391.881601)"><g><path d="M 16.21875 -16.5 L 15.359375 -16.28125 C 14.503906 -19 12.648438 -20.359375 9.796875 -20.359375 C 8.128906 -20.359375 6.773438 -19.929688 5.734375 -19.078125 C 4.703125 -18.234375 4.1875 -17.117188 4.1875 -15.734375 C 4.1875 -13.503906 5.601562 -12.035156 8.4375 -11.328125 L 11.703125 -10.5 C 13.234375 -10.125 14.394531 -9.484375 15.1875 -8.578125 C 15.988281 -7.671875 16.390625 -6.570312 16.390625 -5.28125 C 16.390625 -3.570312 15.738281 -2.191406 14.4375 -1.140625 C 13.144531 -0.0859375 11.472656 0.4375 9.421875 0.4375 C 7.554688 0.4375 6.035156 -0.015625 4.859375 -0.921875 C 3.679688 -1.828125 2.914062 -3.117188 2.5625 -4.796875 L 3.4375 -5.015625 C 4.0625 -1.960938 6.054688 -0.4375 9.421875 -0.4375 C 11.234375 -0.4375 12.703125 -0.878906 13.828125 -1.765625 C 14.953125 -2.660156 15.515625 -3.832031 15.515625 -5.28125 C 15.515625 -7.507812 14.171875 -8.960938 11.484375 -9.640625 L 8.21875 -10.453125 C 6.613281 -10.847656 5.394531 -11.5 4.5625 -12.40625 C 3.738281 -13.320312 3.328125 -14.429688 3.328125 -15.734375 C 3.328125 -17.378906 3.925781 -18.707031 5.125 -19.71875 C 6.332031 -20.726562 7.890625 -21.234375 9.796875 -21.234375 C 13.054688 -21.234375 15.195312 -19.65625 16.21875 -16.5 Z M 16.21875 -16.5 "/></g></g></g><g fill="#000000" fill-opacity="1"><g transform="translate(710.060141, 391.881601)"><g><path d="M 17.203125 -6.859375 L 17.203125 -20.90625 L 18.078125 -20.90625 L 18.078125 0 L 17.203125 0 L 17.203125 -3.328125 L 17.09375 -3.328125 C 16.601562 -2.234375 15.796875 -1.359375 14.671875 -0.703125 C 13.554688 -0.0546875 12.273438 0.265625 10.828125 0.265625 C 9.429688 0.265625 8.195312 -0.0351562 7.125 -0.640625 C 6.0625 -1.242188 5.222656 -2.082031 4.609375 -3.15625 C 4.003906 -4.226562 3.703125 -5.460938 3.703125 -6.859375 L 3.703125 -20.90625 L 4.578125 -20.90625 L 4.578125 -6.859375 C 4.578125 -5.003906 5.15625 -3.492188 6.3125 -2.328125 C 7.476562 -1.171875 8.984375 -0.59375 10.828125 -0.59375 C 12.066406 -0.59375 13.164062 -0.859375 14.125 -1.390625 C 15.082031 -1.929688 15.832031 -2.671875 16.375 -3.609375 C 16.925781 -4.554688 17.203125 -5.640625 17.203125 -6.859375 Z M 17.203125 -6.859375 "/></g></g></g><g fill="#000000" fill-opacity="1"><g transform="translate(731.840245, 391.881601)"><g><path d="M 3.703125 0 L 3.703125 -20.90625 L 4.578125 -20.90625 L 4.578125 -17.578125 L 4.6875 -17.578125 C 5.175781 -18.671875 5.976562 -19.539062 7.09375 -20.1875 C 8.21875 -20.84375 9.5 -21.171875 10.9375 -21.171875 C 11.394531 -21.171875 11.820312 -21.132812 12.21875 -21.0625 C 12.625 -21 13 -20.910156 13.34375 -20.796875 L 13.015625 -19.984375 C 12.410156 -20.203125 11.71875 -20.3125 10.9375 -20.3125 C 9.707031 -20.3125 8.613281 -20.039062 7.65625 -19.5 C 6.695312 -18.96875 5.941406 -18.226562 5.390625 -17.28125 C 4.847656 -16.34375 4.578125 -15.265625 4.578125 -14.046875 L 4.578125 0 Z M 3.703125 0 "/></g></g></g><g fill="#000000" fill-opacity="1"><g transform="translate(745.725066, 391.881601)"><g><path d="M 11.546875 0.4375 C 9.722656 0.4375 8.125 -0.0351562 6.75 -0.984375 C 5.382812 -1.941406 4.328125 -3.238281 3.578125 -4.875 C 2.828125 -6.507812 2.453125 -8.351562 2.453125 -10.40625 C 2.453125 -12.445312 2.828125 -14.285156 3.578125 -15.921875 C 4.335938 -17.554688 5.367188 -18.847656 6.671875 -19.796875 C 7.984375 -20.753906 9.460938 -21.234375 11.109375 -21.234375 C 12.734375 -21.234375 14.1875 -20.78125 15.46875 -19.875 C 16.757812 -18.976562 17.78125 -17.78125 18.53125 -16.28125 C 19.28125 -14.78125 19.65625 -13.128906 19.65625 -11.328125 L 19.65625 -10.453125 L 3.328125 -10.453125 C 3.328125 -8.628906 3.644531 -6.957031 4.28125 -5.4375 C 4.925781 -3.925781 5.859375 -2.710938 7.078125 -1.796875 C 8.304688 -0.890625 9.796875 -0.4375 11.546875 -0.4375 C 12.828125 -0.4375 13.90625 -0.660156 14.78125 -1.109375 C 15.664062 -1.566406 16.367188 -2.085938 16.890625 -2.671875 C 17.421875 -3.265625 17.816406 -3.769531 18.078125 -4.1875 L 18.78125 -3.703125 C 18.46875 -3.171875 18.003906 -2.582031 17.390625 -1.9375 C 16.773438 -1.300781 15.984375 -0.742188 15.015625 -0.265625 C 14.054688 0.203125 12.898438 0.4375 11.546875 0.4375 Z M 3.34375 -11.328125 L 18.78125 -11.328125 C 18.78125 -13.003906 18.4375 -14.523438 17.75 -15.890625 C 17.0625 -17.253906 16.132812 -18.335938 14.96875 -19.140625 C 13.8125 -19.953125 12.523438 -20.359375 11.109375 -20.359375 C 9.734375 -20.359375 8.476562 -19.960938 7.34375 -19.171875 C 6.21875 -18.390625 5.300781 -17.316406 4.59375 -15.953125 C 3.882812 -14.597656 3.46875 -13.054688 3.34375 -11.328125 Z M 3.34375 -11.328125 "/></g></g></g><g fill="#000000" fill-opacity="1"><g transform="translate(26.06817, 445.073689)"><g><path d="M 11.21875 0.4375 C 9.53125 0.4375 8.023438 -0.0351562 6.703125 -0.984375 C 5.378906 -1.929688 4.335938 -3.222656 3.578125 -4.859375 C 2.828125 -6.492188 2.453125 -8.34375 2.453125 -10.40625 C 2.453125 -12.445312 2.828125 -14.285156 3.578125 -15.921875 C 4.328125 -17.554688 5.363281 -18.847656 6.6875 -19.796875 C 8.007812 -20.753906 9.519531 -21.234375 11.21875 -21.234375 C 12.46875 -21.234375 13.613281 -20.960938 14.65625 -20.421875 C 15.707031 -19.878906 16.585938 -19.125 17.296875 -18.15625 C 18.003906 -17.195312 18.460938 -16.082031 18.671875 -14.8125 L 17.75 -14.8125 C 17.46875 -16.445312 16.71875 -17.78125 15.5 -18.8125 C 14.289062 -19.84375 12.863281 -20.359375 11.21875 -20.359375 C 9.71875 -20.359375 8.367188 -19.925781 7.171875 -19.0625 C 5.984375 -18.195312 5.046875 -17.007812 4.359375 -15.5 C 3.671875 -14 3.328125 -12.300781 3.328125 -10.40625 C 3.328125 -8.550781 3.660156 -6.867188 4.328125 -5.359375 C 4.992188 -3.859375 5.921875 -2.660156 7.109375 -1.765625 C 8.296875 -0.878906 9.664062 -0.4375 11.21875 -0.4375 C 12.882812 -0.4375 14.332031 -0.953125 15.5625 -1.984375 C 16.800781 -3.015625 17.546875 -4.382812 17.796875 -6.09375 L 18.734375 -6.09375 C 18.523438 -4.78125 18.066406 -3.632812 17.359375 -2.65625 C 16.660156 -1.675781 15.78125 -0.914062 14.71875 -0.375 C 13.65625 0.164062 12.488281 0.4375 11.21875 0.4375 Z M 11.21875 0.4375 "/></g></g></g><g fill="#000000" fill-opacity="1"><g transform="translate(47.249323, 445.073689)"><g><path d="M 4.578125 -27.875 L 4.578125 0 L 3.703125 0 L 3.703125 -27.875 Z M 4.578125 -27.875 "/></g></g></g><g fill="#000000" fill-opacity="1"><g transform="translate(55.525763, 445.073689)"><g><path d="M 11.546875 0.4375 C 9.722656 0.4375 8.125 -0.0351562 6.75 -0.984375 C 5.382812 -1.941406 4.328125 -3.238281 3.578125 -4.875 C 2.828125 -6.507812 2.453125 -8.351562 2.453125 -10.40625 C 2.453125 -12.445312 2.828125 -14.285156 3.578125 -15.921875 C 4.335938 -17.554688 5.367188 -18.847656 6.671875 -19.796875 C 7.984375 -20.753906 9.460938 -21.234375 11.109375 -21.234375 C 12.734375 -21.234375 14.1875 -20.78125 15.46875 -19.875 C 16.757812 -18.976562 17.78125 -17.78125 18.53125 -16.28125 C 19.28125 -14.78125 19.65625 -13.128906 19.65625 -11.328125 L 19.65625 -10.453125 L 3.328125 -10.453125 C 3.328125 -8.628906 3.644531 -6.957031 4.28125 -5.4375 C 4.925781 -3.925781 5.859375 -2.710938 7.078125 -1.796875 C 8.304688 -0.890625 9.796875 -0.4375 11.546875 -0.4375 C 12.828125 -0.4375 13.90625 -0.660156 14.78125 -1.109375 C 15.664062 -1.566406 16.367188 -2.085938 16.890625 -2.671875 C 17.421875 -3.265625 17.816406 -3.769531 18.078125 -4.1875 L 18.78125 -3.703125 C 18.46875 -3.171875 18.003906 -2.582031 17.390625 -1.9375 C 16.773438 -1.300781 15.984375 -0.742188 15.015625 -0.265625 C 14.054688 0.203125 12.898438 0.4375 11.546875 0.4375 Z M 3.34375 -11.328125 L 18.78125 -11.328125 C 18.78125 -13.003906 18.4375 -14.523438 17.75 -15.890625 C 17.0625 -17.253906 16.132812 -18.335938 14.96875 -19.140625 C 13.8125 -19.953125 12.523438 -20.359375 11.109375 -20.359375 C 9.734375 -20.359375 8.476562 -19.960938 7.34375 -19.171875 C 6.21875 -18.390625 5.300781 -17.316406 4.59375 -15.953125 C 3.882812 -14.597656 3.46875 -13.054688 3.34375 -11.328125 Z M 3.34375 -11.328125 "/></g></g></g><g fill="#000000" fill-opacity="1"><g transform="translate(77.632567, 445.073689)"><g><path d="M 8.921875 0.4375 C 7.785156 0.4375 6.734375 0.203125 5.765625 -0.265625 C 4.796875 -0.742188 4.019531 -1.4375 3.4375 -2.34375 C 2.851562 -3.25 2.5625 -4.351562 2.5625 -5.65625 C 2.5625 -6.601562 2.769531 -7.46875 3.1875 -8.25 C 3.613281 -9.039062 4.394531 -9.710938 5.53125 -10.265625 C 6.664062 -10.828125 8.304688 -11.234375 10.453125 -11.484375 C 11.410156 -11.597656 12.316406 -11.726562 13.171875 -11.875 C 14.023438 -12.019531 14.71875 -12.234375 15.25 -12.515625 C 15.789062 -12.804688 16.0625 -13.226562 16.0625 -13.78125 L 16.0625 -15.03125 C 16.0625 -16.632812 15.519531 -17.921875 14.4375 -18.890625 C 13.363281 -19.867188 11.925781 -20.359375 10.125 -20.359375 C 8.65625 -20.359375 7.367188 -20.035156 6.265625 -19.390625 C 5.171875 -18.742188 4.40625 -17.832031 3.96875 -16.65625 L 3.15625 -16.984375 C 3.644531 -18.296875 4.519531 -19.332031 5.78125 -20.09375 C 7.039062 -20.851562 8.488281 -21.234375 10.125 -21.234375 C 12.25 -21.234375 13.914062 -20.640625 15.125 -19.453125 C 16.332031 -18.273438 16.9375 -16.800781 16.9375 -15.03125 L 16.9375 0 L 16.0625 0 L 16.0625 -4.25 L 15.953125 -4.25 C 15.296875 -2.832031 14.351562 -1.695312 13.125 -0.84375 C 11.90625 0.0078125 10.503906 0.4375 8.921875 0.4375 Z M 8.921875 -0.4375 C 10.253906 -0.4375 11.457031 -0.789062 12.53125 -1.5 C 13.613281 -2.21875 14.472656 -3.210938 15.109375 -4.484375 C 15.742188 -5.753906 16.0625 -7.234375 16.0625 -8.921875 L 16.0625 -12.09375 C 15.539062 -11.707031 14.828125 -11.40625 13.921875 -11.1875 C 13.023438 -10.976562 11.976562 -10.804688 10.78125 -10.671875 C 8.90625 -10.453125 7.429688 -10.117188 6.359375 -9.671875 C 5.296875 -9.234375 4.539062 -8.675781 4.09375 -8 C 3.65625 -7.332031 3.4375 -6.550781 3.4375 -5.65625 C 3.4375 -4.082031 3.960938 -2.816406 5.015625 -1.859375 C 6.066406 -0.910156 7.367188 -0.4375 8.921875 -0.4375 Z M 8.921875 -0.4375 "/></g></g></g><g fill="#000000" fill-opacity="1"><g transform="translate(98.378119, 445.073689)"><g><path d="M 3.703125 0 L 3.703125 -20.90625 L 4.578125 -20.90625 L 4.578125 -17.578125 L 4.6875 -17.578125 C 5.175781 -18.671875 5.976562 -19.539062 7.09375 -20.1875 C 8.21875 -20.84375 9.5 -21.171875 10.9375 -21.171875 C 11.394531 -21.171875 11.820312 -21.132812 12.21875 -21.0625 C 12.625 -21 13 -20.910156 13.34375 -20.796875 L 13.015625 -19.984375 C 12.410156 -20.203125 11.71875 -20.3125 10.9375 -20.3125 C 9.707031 -20.3125 8.613281 -20.039062 7.65625 -19.5 C 6.695312 -18.96875 5.941406 -18.226562 5.390625 -17.28125 C 4.847656 -16.34375 4.578125 -15.265625 4.578125 -14.046875 L 4.578125 0 Z M 3.703125 0 "/></g></g></g><g fill="#000000" fill-opacity="1"><g transform="translate(112.26294, 445.073689)"><g/></g></g><g fill="#000000" fill-opacity="1"><g transform="translate(123.044089, 445.073689)"><g><path d="M 11.21875 0.4375 C 9.53125 0.4375 8.023438 -0.0351562 6.703125 -0.984375 C 5.378906 -1.929688 4.335938 -3.222656 3.578125 -4.859375 C 2.828125 -6.492188 2.453125 -8.34375 2.453125 -10.40625 C 2.453125 -12.445312 2.828125 -14.285156 3.578125 -15.921875 C 4.328125 -17.554688 5.363281 -18.847656 6.6875 -19.796875 C 8.007812 -20.753906 9.519531 -21.234375 11.21875 -21.234375 C 12.46875 -21.234375 13.613281 -20.960938 14.65625 -20.421875 C 15.707031 -19.878906 16.585938 -19.125 17.296875 -18.15625 C 18.003906 -17.195312 18.460938 -16.082031 18.671875 -14.8125 L 17.75 -14.8125 C 17.46875 -16.445312 16.71875 -17.78125 15.5 -18.8125 C 14.289062 -19.84375 12.863281 -20.359375 11.21875 -20.359375 C 9.71875 -20.359375 8.367188 -19.925781 7.171875 -19.0625 C 5.984375 -18.195312 5.046875 -17.007812 4.359375 -15.5 C 3.671875 -14 3.328125 -12.300781 3.328125 -10.40625 C 3.328125 -8.550781 3.660156 -6.867188 4.328125 -5.359375 C 4.992188 -3.859375 5.921875 -2.660156 7.109375 -1.765625 C 8.296875 -0.878906 9.664062 -0.4375 11.21875 -0.4375 C 12.882812 -0.4375 14.332031 -0.953125 15.5625 -1.984375 C 16.800781 -3.015625 17.546875 -4.382812 17.796875 -6.09375 L 18.734375 -6.09375 C 18.523438 -4.78125 18.066406 -3.632812 17.359375 -2.65625 C 16.660156 -1.675781 15.78125 -0.914062 14.71875 -0.375 C 13.65625 0.164062 12.488281 0.4375 11.21875 0.4375 Z M 11.21875 0.4375 "/></g></g></g><g fill="#000000" fill-opacity="1"><g transform="translate(144.225242, 445.073689)"><g><path d="M 11.109375 0.4375 C 9.460938 0.4375 7.984375 -0.0351562 6.671875 -0.984375 C 5.367188 -1.929688 4.335938 -3.222656 3.578125 -4.859375 C 2.828125 -6.503906 2.453125 -8.351562 2.453125 -10.40625 C 2.453125 -12.457031 2.828125 -14.300781 3.578125 -15.9375 C 4.335938 -17.570312 5.367188 -18.863281 6.671875 -19.8125 C 7.984375 -20.757812 9.460938 -21.234375 11.109375 -21.234375 C 12.742188 -21.234375 14.210938 -20.753906 15.515625 -19.796875 C 16.816406 -18.847656 17.847656 -17.554688 18.609375 -15.921875 C 19.378906 -14.285156 19.765625 -12.445312 19.765625 -10.40625 C 19.765625 -8.351562 19.382812 -6.503906 18.625 -4.859375 C 17.863281 -3.222656 16.828125 -1.929688 15.515625 -0.984375 C 14.210938 -0.0351562 12.742188 0.4375 11.109375 0.4375 Z M 11.109375 -0.4375 C 12.585938 -0.4375 13.910156 -0.867188 15.078125 -1.734375 C 16.253906 -2.609375 17.179688 -3.796875 17.859375 -5.296875 C 18.546875 -6.804688 18.890625 -8.507812 18.890625 -10.40625 C 18.890625 -12.289062 18.546875 -13.984375 17.859375 -15.484375 C 17.179688 -16.984375 16.253906 -18.171875 15.078125 -19.046875 C 13.910156 -19.921875 12.585938 -20.359375 11.109375 -20.359375 C 9.640625 -20.359375 8.316406 -19.921875 7.140625 -19.046875 C 5.960938 -18.171875 5.03125 -16.984375 4.34375 -15.484375 C 3.664062 -13.984375 3.328125 -12.289062 3.328125 -10.40625 C 3.328125 -8.507812 3.664062 -6.804688 4.34375 -5.296875 C 5.019531 -3.796875 5.945312 -2.609375 7.125 -1.734375 C 8.300781 -0.867188 9.628906 -0.4375 11.109375 -0.4375 Z M 11.109375 -0.4375 "/></g></g></g><g fill="#000000" fill-opacity="1"><g transform="translate(166.440949, 445.073689)"><g><path d="M 3.703125 0 L 3.703125 -20.90625 L 4.578125 -20.90625 L 4.578125 -17.796875 L 4.6875 -17.796875 C 5.0625 -18.816406 5.738281 -19.632812 6.71875 -20.25 C 7.707031 -20.863281 8.898438 -21.171875 10.296875 -21.171875 C 11.867188 -21.171875 13.125 -20.78125 14.0625 -20 C 15 -19.226562 15.644531 -18.1875 16 -16.875 L 16.109375 -16.875 C 16.453125 -18.1875 17.148438 -19.226562 18.203125 -20 C 19.265625 -20.78125 20.582031 -21.171875 22.15625 -21.171875 C 24.25 -21.171875 25.796875 -20.503906 26.796875 -19.171875 C 27.804688 -17.847656 28.3125 -16.140625 28.3125 -14.046875 L 28.3125 0 L 27.4375 0 L 27.4375 -14.046875 C 27.4375 -15.898438 27.019531 -17.40625 26.1875 -18.5625 C 25.351562 -19.726562 24.007812 -20.3125 22.15625 -20.3125 C 20.300781 -20.3125 18.882812 -19.722656 17.90625 -18.546875 C 16.925781 -17.367188 16.4375 -15.867188 16.4375 -14.046875 L 16.4375 0 L 15.578125 0 L 15.578125 -14.046875 C 15.578125 -15.898438 15.15625 -17.40625 14.3125 -18.5625 C 13.476562 -19.726562 12.140625 -20.3125 10.296875 -20.3125 C 8.441406 -20.3125 7.023438 -19.722656 6.046875 -18.546875 C 5.066406 -17.367188 4.578125 -15.867188 4.578125 -14.046875 L 4.578125 0 Z M 3.703125 0 "/></g></g></g><g fill="#000000" fill-opacity="1"><g transform="translate(198.457708, 445.073689)"><g><path d="M 3.703125 0 L 3.703125 -20.90625 L 4.578125 -20.90625 L 4.578125 -17.796875 L 4.6875 -17.796875 C 5.0625 -18.816406 5.738281 -19.632812 6.71875 -20.25 C 7.707031 -20.863281 8.898438 -21.171875 10.296875 -21.171875 C 11.867188 -21.171875 13.125 -20.78125 14.0625 -20 C 15 -19.226562 15.644531 -18.1875 16 -16.875 L 16.109375 -16.875 C 16.453125 -18.1875 17.148438 -19.226562 18.203125 -20 C 19.265625 -20.78125 20.582031 -21.171875 22.15625 -21.171875 C 24.25 -21.171875 25.796875 -20.503906 26.796875 -19.171875 C 27.804688 -17.847656 28.3125 -16.140625 28.3125 -14.046875 L 28.3125 0 L 27.4375 0 L 27.4375 -14.046875 C 27.4375 -15.898438 27.019531 -17.40625 26.1875 -18.5625 C 25.351562 -19.726562 24.007812 -20.3125 22.15625 -20.3125 C 20.300781 -20.3125 18.882812 -19.722656 17.90625 -18.546875 C 16.925781 -17.367188 16.4375 -15.867188 16.4375 -14.046875 L 16.4375 0 L 15.578125 0 L 15.578125 -14.046875 C 15.578125 -15.898438 15.15625 -17.40625 14.3125 -18.5625 C 13.476562 -19.726562 12.140625 -20.3125 10.296875 -20.3125 C 8.441406 -20.3125 7.023438 -19.722656 6.046875 -18.546875 C 5.066406 -17.367188 4.578125 -15.867188 4.578125 -14.046875 L 4.578125 0 Z M 3.703125 0 "/></g></g></g><g fill="#000000" fill-opacity="1"><g transform="translate(230.474457, 445.073689)"><g><path d="M 17.203125 -6.859375 L 17.203125 -20.90625 L 18.078125 -20.90625 L 18.078125 0 L 17.203125 0 L 17.203125 -3.328125 L 17.09375 -3.328125 C 16.601562 -2.234375 15.796875 -1.359375 14.671875 -0.703125 C 13.554688 -0.0546875 12.273438 0.265625 10.828125 0.265625 C 9.429688 0.265625 8.195312 -0.0351562 7.125 -0.640625 C 6.0625 -1.242188 5.222656 -2.082031 4.609375 -3.15625 C 4.003906 -4.226562 3.703125 -5.460938 3.703125 -6.859375 L 3.703125 -20.90625 L 4.578125 -20.90625 L 4.578125 -6.859375 C 4.578125 -5.003906 5.15625 -3.492188 6.3125 -2.328125 C 7.476562 -1.171875 8.984375 -0.59375 10.828125 -0.59375 C 12.066406 -0.59375 13.164062 -0.859375 14.125 -1.390625 C 15.082031 -1.929688 15.832031 -2.671875 16.375 -3.609375 C 16.925781 -4.554688 17.203125 -5.640625 17.203125 -6.859375 Z M 17.203125 -6.859375 "/></g></g></g><g fill="#000000" fill-opacity="1"><g transform="translate(252.254562, 445.073689)"><g><path d="M 4.578125 -14.046875 L 4.578125 0 L 3.703125 0 L 3.703125 -20.90625 L 4.578125 -20.90625 L 4.578125 -17.578125 L 4.6875 -17.578125 C 5.175781 -18.671875 5.976562 -19.539062 7.09375 -20.1875 C 8.21875 -20.84375 9.5 -21.171875 10.9375 -21.171875 C 12.34375 -21.171875 13.578125 -20.867188 14.640625 -20.265625 C 15.710938 -19.660156 16.550781 -18.820312 17.15625 -17.75 C 17.769531 -16.675781 18.078125 -15.441406 18.078125 -14.046875 L 18.078125 0 L 17.203125 0 L 17.203125 -14.046875 C 17.203125 -15.898438 16.617188 -17.40625 15.453125 -18.5625 C 14.296875 -19.726562 12.789062 -20.3125 10.9375 -20.3125 C 9.707031 -20.3125 8.613281 -20.039062 7.65625 -19.5 C 6.695312 -18.96875 5.941406 -18.226562 5.390625 -17.28125 C 4.847656 -16.34375 4.578125 -15.265625 4.578125 -14.046875 Z M 4.578125 -14.046875 "/></g></g></g><g fill="#000000" fill-opacity="1"><g transform="translate(274.034666, 445.073689)"><g><path d="M 3.8125 0 L 3.8125 -20.90625 L 4.6875 -20.90625 L 4.6875 0 Z M 4.25 -24.71875 C 4.007812 -24.71875 3.800781 -24.800781 3.625 -24.96875 C 3.457031 -25.144531 3.375 -25.351562 3.375 -25.59375 C 3.375 -25.820312 3.457031 -26.019531 3.625 -26.1875 C 3.800781 -26.363281 4.007812 -26.453125 4.25 -26.453125 C 4.488281 -26.453125 4.691406 -26.363281 4.859375 -26.1875 C 5.035156 -26.019531 5.125 -25.820312 5.125 -25.59375 C 5.125 -25.351562 5.035156 -25.144531 4.859375 -24.96875 C 4.691406 -24.800781 4.488281 -24.71875 4.25 -24.71875 Z M 4.25 -24.71875 "/></g></g></g><g fill="#000000" fill-opacity="1"><g transform="translate(282.528924, 445.073689)"><g><path d="M 11.21875 0.4375 C 9.53125 0.4375 8.023438 -0.0351562 6.703125 -0.984375 C 5.378906 -1.929688 4.335938 -3.222656 3.578125 -4.859375 C 2.828125 -6.492188 2.453125 -8.34375 2.453125 -10.40625 C 2.453125 -12.445312 2.828125 -14.285156 3.578125 -15.921875 C 4.328125 -17.554688 5.363281 -18.847656 6.6875 -19.796875 C 8.007812 -20.753906 9.519531 -21.234375 11.21875 -21.234375 C 12.46875 -21.234375 13.613281 -20.960938 14.65625 -20.421875 C 15.707031 -19.878906 16.585938 -19.125 17.296875 -18.15625 C 18.003906 -17.195312 18.460938 -16.082031 18.671875 -14.8125 L 17.75 -14.8125 C 17.46875 -16.445312 16.71875 -17.78125 15.5 -18.8125 C 14.289062 -19.84375 12.863281 -20.359375 11.21875 -20.359375 C 9.71875 -20.359375 8.367188 -19.925781 7.171875 -19.0625 C 5.984375 -18.195312 5.046875 -17.007812 4.359375 -15.5 C 3.671875 -14 3.328125 -12.300781 3.328125 -10.40625 C 3.328125 -8.550781 3.660156 -6.867188 4.328125 -5.359375 C 4.992188 -3.859375 5.921875 -2.660156 7.109375 -1.765625 C 8.296875 -0.878906 9.664062 -0.4375 11.21875 -0.4375 C 12.882812 -0.4375 14.332031 -0.953125 15.5625 -1.984375 C 16.800781 -3.015625 17.546875 -4.382812 17.796875 -6.09375 L 18.734375 -6.09375 C 18.523438 -4.78125 18.066406 -3.632812 17.359375 -2.65625 C 16.660156 -1.675781 15.78125 -0.914062 14.71875 -0.375 C 13.65625 0.164062 12.488281 0.4375 11.21875 0.4375 Z M 11.21875 0.4375 "/></g></g></g><g fill="#000000" fill-opacity="1"><g transform="translate(303.710077, 445.073689)"><g><path d="M 8.921875 0.4375 C 7.785156 0.4375 6.734375 0.203125 5.765625 -0.265625 C 4.796875 -0.742188 4.019531 -1.4375 3.4375 -2.34375 C 2.851562 -3.25 2.5625 -4.351562 2.5625 -5.65625 C 2.5625 -6.601562 2.769531 -7.46875 3.1875 -8.25 C 3.613281 -9.039062 4.394531 -9.710938 5.53125 -10.265625 C 6.664062 -10.828125 8.304688 -11.234375 10.453125 -11.484375 C 11.410156 -11.597656 12.316406 -11.726562 13.171875 -11.875 C 14.023438 -12.019531 14.71875 -12.234375 15.25 -12.515625 C 15.789062 -12.804688 16.0625 -13.226562 16.0625 -13.78125 L 16.0625 -15.03125 C 16.0625 -16.632812 15.519531 -17.921875 14.4375 -18.890625 C 13.363281 -19.867188 11.925781 -20.359375 10.125 -20.359375 C 8.65625 -20.359375 7.367188 -20.035156 6.265625 -19.390625 C 5.171875 -18.742188 4.40625 -17.832031 3.96875 -16.65625 L 3.15625 -16.984375 C 3.644531 -18.296875 4.519531 -19.332031 5.78125 -20.09375 C 7.039062 -20.851562 8.488281 -21.234375 10.125 -21.234375 C 12.25 -21.234375 13.914062 -20.640625 15.125 -19.453125 C 16.332031 -18.273438 16.9375 -16.800781 16.9375 -15.03125 L 16.9375 0 L 16.0625 0 L 16.0625 -4.25 L 15.953125 -4.25 C 15.296875 -2.832031 14.351562 -1.695312 13.125 -0.84375 C 11.90625 0.0078125 10.503906 0.4375 8.921875 0.4375 Z M 8.921875 -0.4375 C 10.253906 -0.4375 11.457031 -0.789062 12.53125 -1.5 C 13.613281 -2.21875 14.472656 -3.210938 15.109375 -4.484375 C 15.742188 -5.753906 16.0625 -7.234375 16.0625 -8.921875 L 16.0625 -12.09375 C 15.539062 -11.707031 14.828125 -11.40625 13.921875 -11.1875 C 13.023438 -10.976562 11.976562 -10.804688 10.78125 -10.671875 C 8.90625 -10.453125 7.429688 -10.117188 6.359375 -9.671875 C 5.296875 -9.234375 4.539062 -8.675781 4.09375 -8 C 3.65625 -7.332031 3.4375 -6.550781 3.4375 -5.65625 C 3.4375 -4.082031 3.960938 -2.816406 5.015625 -1.859375 C 6.066406 -0.910156 7.367188 -0.4375 8.921875 -0.4375 Z M 8.921875 -0.4375 "/></g></g></g><g fill="#000000" fill-opacity="1"><g transform="translate(324.455617, 445.073689)"><g><path d="M 10.234375 -20.90625 L 10.234375 -20.03125 L 5.875 -20.03125 L 5.875 -4.40625 C 5.875 -3.195312 6.265625 -2.238281 7.046875 -1.53125 C 7.835938 -0.832031 8.753906 -0.484375 9.796875 -0.484375 C 10.253906 -0.484375 10.726562 -0.578125 11.21875 -0.765625 L 11.484375 0.046875 C 11.210938 0.148438 10.945312 0.226562 10.6875 0.28125 C 10.425781 0.34375 10.128906 0.375 9.796875 0.375 C 8.503906 0.375 7.382812 -0.0507812 6.4375 -0.90625 C 5.488281 -1.769531 5.015625 -2.9375 5.015625 -4.40625 L 5.015625 -20.03125 L 1.953125 -20.03125 L 1.953125 -20.90625 L 5.015625 -20.90625 L 5.015625 -25.921875 L 5.875 -25.921875 L 5.875 -20.90625 Z M 10.234375 -20.90625 "/></g></g></g><g fill="#000000" fill-opacity="1"><g transform="translate(337.795932, 445.073689)"><g><path d="M 3.8125 0 L 3.8125 -20.90625 L 4.6875 -20.90625 L 4.6875 0 Z M 4.25 -24.71875 C 4.007812 -24.71875 3.800781 -24.800781 3.625 -24.96875 C 3.457031 -25.144531 3.375 -25.351562 3.375 -25.59375 C 3.375 -25.820312 3.457031 -26.019531 3.625 -26.1875 C 3.800781 -26.363281 4.007812 -26.453125 4.25 -26.453125 C 4.488281 -26.453125 4.691406 -26.363281 4.859375 -26.1875 C 5.035156 -26.019531 5.125 -25.820312 5.125 -25.59375 C 5.125 -25.351562 5.035156 -25.144531 4.859375 -24.96875 C 4.691406 -24.800781 4.488281 -24.71875 4.25 -24.71875 Z M 4.25 -24.71875 "/></g></g></g><g fill="#000000" fill-opacity="1"><g transform="translate(346.29019, 445.073689)"><g><path d="M 11.109375 0.4375 C 9.460938 0.4375 7.984375 -0.0351562 6.671875 -0.984375 C 5.367188 -1.929688 4.335938 -3.222656 3.578125 -4.859375 C 2.828125 -6.503906 2.453125 -8.351562 2.453125 -10.40625 C 2.453125 -12.457031 2.828125 -14.300781 3.578125 -15.9375 C 4.335938 -17.570312 5.367188 -18.863281 6.671875 -19.8125 C 7.984375 -20.757812 9.460938 -21.234375 11.109375 -21.234375 C 12.742188 -21.234375 14.210938 -20.753906 15.515625 -19.796875 C 16.816406 -18.847656 17.847656 -17.554688 18.609375 -15.921875 C 19.378906 -14.285156 19.765625 -12.445312 19.765625 -10.40625 C 19.765625 -8.351562 19.382812 -6.503906 18.625 -4.859375 C 17.863281 -3.222656 16.828125 -1.929688 15.515625 -0.984375 C 14.210938 -0.0351562 12.742188 0.4375 11.109375 0.4375 Z M 11.109375 -0.4375 C 12.585938 -0.4375 13.910156 -0.867188 15.078125 -1.734375 C 16.253906 -2.609375 17.179688 -3.796875 17.859375 -5.296875 C 18.546875 -6.804688 18.890625 -8.507812 18.890625 -10.40625 C 18.890625 -12.289062 18.546875 -13.984375 17.859375 -15.484375 C 17.179688 -16.984375 16.253906 -18.171875 15.078125 -19.046875 C 13.910156 -19.921875 12.585938 -20.359375 11.109375 -20.359375 C 9.640625 -20.359375 8.316406 -19.921875 7.140625 -19.046875 C 5.960938 -18.171875 5.03125 -16.984375 4.34375 -15.484375 C 3.664062 -13.984375 3.328125 -12.289062 3.328125 -10.40625 C 3.328125 -8.507812 3.664062 -6.804688 4.34375 -5.296875 C 5.019531 -3.796875 5.945312 -2.609375 7.125 -1.734375 C 8.300781 -0.867188 9.628906 -0.4375 11.109375 -0.4375 Z M 11.109375 -0.4375 "/></g></g></g><g fill="#000000" fill-opacity="1"><g transform="translate(368.505886, 445.073689)"><g><path d="M 4.578125 -14.046875 L 4.578125 0 L 3.703125 0 L 3.703125 -20.90625 L 4.578125 -20.90625 L 4.578125 -17.578125 L 4.6875 -17.578125 C 5.175781 -18.671875 5.976562 -19.539062 7.09375 -20.1875 C 8.21875 -20.84375 9.5 -21.171875 10.9375 -21.171875 C 12.34375 -21.171875 13.578125 -20.867188 14.640625 -20.265625 C 15.710938 -19.660156 16.550781 -18.820312 17.15625 -17.75 C 17.769531 -16.675781 18.078125 -15.441406 18.078125 -14.046875 L 18.078125 0 L 17.203125 0 L 17.203125 -14.046875 C 17.203125 -15.898438 16.617188 -17.40625 15.453125 -18.5625 C 14.296875 -19.726562 12.789062 -20.3125 10.9375 -20.3125 C 9.707031 -20.3125 8.613281 -20.039062 7.65625 -19.5 C 6.695312 -18.96875 5.941406 -18.226562 5.390625 -17.28125 C 4.847656 -16.34375 4.578125 -15.265625 4.578125 -14.046875 Z M 4.578125 -14.046875 "/></g></g></g><g fill="#000000" fill-opacity="1"><g transform="translate(390.28599, 445.073689)"><g/></g></g><g fill="#000000" fill-opacity="1"><g transform="translate(401.067139, 445.073689)"><g><path d="M 8.171875 0 L 1.953125 -20.90625 L 2.890625 -20.90625 L 8.71875 -1.203125 L 8.8125 -1.203125 L 14.703125 -20.90625 L 15.578125 -20.90625 L 21.453125 -1.203125 L 21.5625 -1.203125 L 27.390625 -20.90625 L 28.3125 -20.90625 L 22.109375 0 L 20.90625 0 L 15.1875 -19.265625 L 15.078125 -19.265625 L 9.359375 0 Z M 8.171875 0 "/></g></g></g><g fill="#000000" fill-opacity="1"><g transform="translate(431.34148, 445.073689)"><g><path d="M 4.578125 -14.046875 L 4.578125 0 L 3.703125 0 L 3.703125 -27.875 L 4.578125 -27.875 L 4.578125 -17.578125 L 4.6875 -17.578125 C 5.175781 -18.671875 5.976562 -19.539062 7.09375 -20.1875 C 8.21875 -20.84375 9.5 -21.171875 10.9375 -21.171875 C 12.34375 -21.171875 13.578125 -20.867188 14.640625 -20.265625 C 15.710938 -19.660156 16.550781 -18.820312 17.15625 -17.75 C 17.769531 -16.675781 18.078125 -15.441406 18.078125 -14.046875 L 18.078125 0 L 17.203125 0 L 17.203125 -14.046875 C 17.203125 -15.898438 16.617188 -17.40625 15.453125 -18.5625 C 14.296875 -19.726562 12.789062 -20.3125 10.9375 -20.3125 C 9.707031 -20.3125 8.613281 -20.039062 7.65625 -19.5 C 6.695312 -18.96875 5.941406 -18.226562 5.390625 -17.28125 C 4.847656 -16.34375 4.578125 -15.265625 4.578125 -14.046875 Z M 4.578125 -14.046875 "/></g></g></g><g fill="#000000" fill-opacity="1"><g transform="translate(453.121563, 445.073689)"><g><path d="M 11.546875 0.4375 C 9.722656 0.4375 8.125 -0.0351562 6.75 -0.984375 C 5.382812 -1.941406 4.328125 -3.238281 3.578125 -4.875 C 2.828125 -6.507812 2.453125 -8.351562 2.453125 -10.40625 C 2.453125 -12.445312 2.828125 -14.285156 3.578125 -15.921875 C 4.335938 -17.554688 5.367188 -18.847656 6.671875 -19.796875 C 7.984375 -20.753906 9.460938 -21.234375 11.109375 -21.234375 C 12.734375 -21.234375 14.1875 -20.78125 15.46875 -19.875 C 16.757812 -18.976562 17.78125 -17.78125 18.53125 -16.28125 C 19.28125 -14.78125 19.65625 -13.128906 19.65625 -11.328125 L 19.65625 -10.453125 L 3.328125 -10.453125 C 3.328125 -8.628906 3.644531 -6.957031 4.28125 -5.4375 C 4.925781 -3.925781 5.859375 -2.710938 7.078125 -1.796875 C 8.304688 -0.890625 9.796875 -0.4375 11.546875 -0.4375 C 12.828125 -0.4375 13.90625 -0.660156 14.78125 -1.109375 C 15.664062 -1.566406 16.367188 -2.085938 16.890625 -2.671875 C 17.421875 -3.265625 17.816406 -3.769531 18.078125 -4.1875 L 18.78125 -3.703125 C 18.46875 -3.171875 18.003906 -2.582031 17.390625 -1.9375 C 16.773438 -1.300781 15.984375 -0.742188 15.015625 -0.265625 C 14.054688 0.203125 12.898438 0.4375 11.546875 0.4375 Z M 3.34375 -11.328125 L 18.78125 -11.328125 C 18.78125 -13.003906 18.4375 -14.523438 17.75 -15.890625 C 17.0625 -17.253906 16.132812 -18.335938 14.96875 -19.140625 C 13.8125 -19.953125 12.523438 -20.359375 11.109375 -20.359375 C 9.734375 -20.359375 8.476562 -19.960938 7.34375 -19.171875 C 6.21875 -18.390625 5.300781 -17.316406 4.59375 -15.953125 C 3.882812 -14.597656 3.46875 -13.054688 3.34375 -11.328125 Z M 3.34375 -11.328125 "/></g></g></g><g fill="#000000" fill-opacity="1"><g transform="translate(475.228367, 445.073689)"><g><path d="M 4.578125 -14.046875 L 4.578125 0 L 3.703125 0 L 3.703125 -20.90625 L 4.578125 -20.90625 L 4.578125 -17.578125 L 4.6875 -17.578125 C 5.175781 -18.671875 5.976562 -19.539062 7.09375 -20.1875 C 8.21875 -20.84375 9.5 -21.171875 10.9375 -21.171875 C 12.34375 -21.171875 13.578125 -20.867188 14.640625 -20.265625 C 15.710938 -19.660156 16.550781 -18.820312 17.15625 -17.75 C 17.769531 -16.675781 18.078125 -15.441406 18.078125 -14.046875 L 18.078125 0 L 17.203125 0 L 17.203125 -14.046875 C 17.203125 -15.898438 16.617188 -17.40625 15.453125 -18.5625 C 14.296875 -19.726562 12.789062 -20.3125 10.9375 -20.3125 C 9.707031 -20.3125 8.613281 -20.039062 7.65625 -19.5 C 6.695312 -18.96875 5.941406 -18.226562 5.390625 -17.28125 C 4.847656 -16.34375 4.578125 -15.265625 4.578125 -14.046875 Z M 4.578125 -14.046875 "/></g></g></g><g fill="#000000" fill-opacity="1"><g transform="translate(497.008494, 445.073689)"><g/></g></g><g fill="#000000" fill-opacity="1"><g transform="translate(507.789621, 445.073689)"><g><path d="M 8.921875 0.4375 C 7.785156 0.4375 6.734375 0.203125 5.765625 -0.265625 C 4.796875 -0.742188 4.019531 -1.4375 3.4375 -2.34375 C 2.851562 -3.25 2.5625 -4.351562 2.5625 -5.65625 C 2.5625 -6.601562 2.769531 -7.46875 3.1875 -8.25 C 3.613281 -9.039062 4.394531 -9.710938 5.53125 -10.265625 C 6.664062 -10.828125 8.304688 -11.234375 10.453125 -11.484375 C 11.410156 -11.597656 12.316406 -11.726562 13.171875 -11.875 C 14.023438 -12.019531 14.71875 -12.234375 15.25 -12.515625 C 15.789062 -12.804688 16.0625 -13.226562 16.0625 -13.78125 L 16.0625 -15.03125 C 16.0625 -16.632812 15.519531 -17.921875 14.4375 -18.890625 C 13.363281 -19.867188 11.925781 -20.359375 10.125 -20.359375 C 8.65625 -20.359375 7.367188 -20.035156 6.265625 -19.390625 C 5.171875 -18.742188 4.40625 -17.832031 3.96875 -16.65625 L 3.15625 -16.984375 C 3.644531 -18.296875 4.519531 -19.332031 5.78125 -20.09375 C 7.039062 -20.851562 8.488281 -21.234375 10.125 -21.234375 C 12.25 -21.234375 13.914062 -20.640625 15.125 -19.453125 C 16.332031 -18.273438 16.9375 -16.800781 16.9375 -15.03125 L 16.9375 0 L 16.0625 0 L 16.0625 -4.25 L 15.953125 -4.25 C 15.296875 -2.832031 14.351562 -1.695312 13.125 -0.84375 C 11.90625 0.0078125 10.503906 0.4375 8.921875 0.4375 Z M 8.921875 -0.4375 C 10.253906 -0.4375 11.457031 -0.789062 12.53125 -1.5 C 13.613281 -2.21875 14.472656 -3.210938 15.109375 -4.484375 C 15.742188 -5.753906 16.0625 -7.234375 16.0625 -8.921875 L 16.0625 -12.09375 C 15.539062 -11.707031 14.828125 -11.40625 13.921875 -11.1875 C 13.023438 -10.976562 11.976562 -10.804688 10.78125 -10.671875 C 8.90625 -10.453125 7.429688 -10.117188 6.359375 -9.671875 C 5.296875 -9.234375 4.539062 -8.675781 4.09375 -8 C 3.65625 -7.332031 3.4375 -6.550781 3.4375 -5.65625 C 3.4375 -4.082031 3.960938 -2.816406 5.015625 -1.859375 C 6.066406 -0.910156 7.367188 -0.4375 8.921875 -0.4375 Z M 8.921875 -0.4375 "/></g></g></g><g fill="#000000" fill-opacity="1"><g transform="translate(528.535184, 445.073689)"><g><path d="M 16.21875 -16.5 L 15.359375 -16.28125 C 14.503906 -19 12.648438 -20.359375 9.796875 -20.359375 C 8.128906 -20.359375 6.773438 -19.929688 5.734375 -19.078125 C 4.703125 -18.234375 4.1875 -17.117188 4.1875 -15.734375 C 4.1875 -13.503906 5.601562 -12.035156 8.4375 -11.328125 L 11.703125 -10.5 C 13.234375 -10.125 14.394531 -9.484375 15.1875 -8.578125 C 15.988281 -7.671875 16.390625 -6.570312 16.390625 -5.28125 C 16.390625 -3.570312 15.738281 -2.191406 14.4375 -1.140625 C 13.144531 -0.0859375 11.472656 0.4375 9.421875 0.4375 C 7.554688 0.4375 6.035156 -0.015625 4.859375 -0.921875 C 3.679688 -1.828125 2.914062 -3.117188 2.5625 -4.796875 L 3.4375 -5.015625 C 4.0625 -1.960938 6.054688 -0.4375 9.421875 -0.4375 C 11.234375 -0.4375 12.703125 -0.878906 13.828125 -1.765625 C 14.953125 -2.660156 15.515625 -3.832031 15.515625 -5.28125 C 15.515625 -7.507812 14.171875 -8.960938 11.484375 -9.640625 L 8.21875 -10.453125 C 6.613281 -10.847656 5.394531 -11.5 4.5625 -12.40625 C 3.738281 -13.320312 3.328125 -14.429688 3.328125 -15.734375 C 3.328125 -17.378906 3.925781 -18.707031 5.125 -19.71875 C 6.332031 -20.726562 7.890625 -21.234375 9.796875 -21.234375 C 13.054688 -21.234375 15.195312 -19.65625 16.21875 -16.5 Z M 16.21875 -16.5 "/></g></g></g><g fill="#000000" fill-opacity="1"><g transform="translate(547.429401, 445.073689)"><g><path d="M 3.703125 0 L 3.703125 -27.875 L 4.578125 -27.875 L 4.578125 -10.015625 L 4.6875 -10.015625 L 15.78125 -20.90625 L 17.046875 -20.90625 L 7.875 -11.890625 L 17.375 0 L 16.21875 0 L 7.265625 -11.296875 L 4.578125 -8.65625 L 4.578125 0 Z M 3.703125 0 "/></g></g></g><g fill="#000000" fill-opacity="1"><g transform="translate(566.105834, 445.073689)"><g><path d="M 3.8125 0 L 3.8125 -20.90625 L 4.6875 -20.90625 L 4.6875 0 Z M 4.25 -24.71875 C 4.007812 -24.71875 3.800781 -24.800781 3.625 -24.96875 C 3.457031 -25.144531 3.375 -25.351562 3.375 -25.59375 C 3.375 -25.820312 3.457031 -26.019531 3.625 -26.1875 C 3.800781 -26.363281 4.007812 -26.453125 4.25 -26.453125 C 4.488281 -26.453125 4.691406 -26.363281 4.859375 -26.1875 C 5.035156 -26.019531 5.125 -25.820312 5.125 -25.59375 C 5.125 -25.351562 5.035156 -25.144531 4.859375 -24.96875 C 4.691406 -24.800781 4.488281 -24.71875 4.25 -24.71875 Z M 4.25 -24.71875 "/></g></g></g><g fill="#000000" fill-opacity="1"><g transform="translate(574.600091, 445.073689)"><g><path d="M 4.578125 -14.046875 L 4.578125 0 L 3.703125 0 L 3.703125 -20.90625 L 4.578125 -20.90625 L 4.578125 -17.578125 L 4.6875 -17.578125 C 5.175781 -18.671875 5.976562 -19.539062 7.09375 -20.1875 C 8.21875 -20.84375 9.5 -21.171875 10.9375 -21.171875 C 12.34375 -21.171875 13.578125 -20.867188 14.640625 -20.265625 C 15.710938 -19.660156 16.550781 -18.820312 17.15625 -17.75 C 17.769531 -16.675781 18.078125 -15.441406 18.078125 -14.046875 L 18.078125 0 L 17.203125 0 L 17.203125 -14.046875 C 17.203125 -15.898438 16.617188 -17.40625 15.453125 -18.5625 C 14.296875 -19.726562 12.789062 -20.3125 10.9375 -20.3125 C 9.707031 -20.3125 8.613281 -20.039062 7.65625 -19.5 C 6.695312 -18.96875 5.941406 -18.226562 5.390625 -17.28125 C 4.847656 -16.34375 4.578125 -15.265625 4.578125 -14.046875 Z M 4.578125 -14.046875 "/></g></g></g><g fill="#000000" fill-opacity="1"><g transform="translate(596.380218, 445.073689)"><g><path d="M 10.78125 8.28125 C 9.03125 8.28125 7.488281 7.925781 6.15625 7.21875 C 4.832031 6.519531 3.90625 5.472656 3.375 4.078125 L 4.1875 3.75 C 4.664062 4.988281 5.488281 5.90625 6.65625 6.5 C 7.832031 7.101562 9.207031 7.40625 10.78125 7.40625 C 12.957031 7.40625 14.648438 6.828125 15.859375 5.671875 C 17.078125 4.523438 17.6875 2.78125 17.6875 0.4375 L 17.6875 -5.234375 L 17.578125 -5.234375 C 17.035156 -3.484375 16.109375 -2.171875 14.796875 -1.296875 C 13.484375 -0.429688 12.050781 0 10.5 0 C 8.875 0 7.457031 -0.4375 6.25 -1.3125 C 5.039062 -2.195312 4.101562 -3.421875 3.4375 -4.984375 C 2.78125 -6.546875 2.453125 -8.351562 2.453125 -10.40625 C 2.453125 -12.46875 2.773438 -14.316406 3.421875 -15.953125 C 4.078125 -17.585938 5.007812 -18.875 6.21875 -19.8125 C 7.425781 -20.757812 8.851562 -21.234375 10.5 -21.234375 C 12.195312 -21.234375 13.660156 -20.722656 14.890625 -19.703125 C 16.117188 -18.691406 17.015625 -17.316406 17.578125 -15.578125 L 17.6875 -15.578125 L 17.6875 -20.90625 L 18.5625 -20.90625 L 18.5625 0.4375 C 18.5625 3.007812 17.867188 4.957031 16.484375 6.28125 C 15.097656 7.613281 13.195312 8.28125 10.78125 8.28125 Z M 10.5 -0.875 C 12.6875 -0.875 14.429688 -1.726562 15.734375 -3.4375 C 17.035156 -5.144531 17.6875 -7.46875 17.6875 -10.40625 C 17.6875 -12.289062 17.394531 -13.984375 16.8125 -15.484375 C 16.238281 -16.984375 15.410156 -18.171875 14.328125 -19.046875 C 13.253906 -19.921875 11.976562 -20.359375 10.5 -20.359375 C 9.019531 -20.359375 7.742188 -19.921875 6.671875 -19.046875 C 5.597656 -18.171875 4.769531 -16.984375 4.1875 -15.484375 C 3.613281 -13.984375 3.328125 -12.289062 3.328125 -10.40625 C 3.328125 -8.507812 3.617188 -6.847656 4.203125 -5.421875 C 4.785156 -3.992188 5.613281 -2.878906 6.6875 -2.078125 C 7.757812 -1.273438 9.03125 -0.875 10.5 -0.875 Z M 10.5 -0.875 "/></g></g></g><g fill="#000000" fill-opacity="1"><g transform="translate(618.759297, 445.073689)"><g/></g></g><g fill="#000000" fill-opacity="1"><g transform="translate(629.540424, 445.073689)"><g><path d="M 10.890625 -20.90625 L 10.890625 -20.03125 L 6.375 -20.03125 L 6.375 0 L 5.5 0 L 5.5 -20.03125 L 2.609375 -20.03125 L 2.609375 -20.90625 L 5.5 -20.90625 L 5.5 -23.953125 C 5.5 -25.421875 5.972656 -26.585938 6.921875 -27.453125 C 7.878906 -28.316406 9.003906 -28.75 10.296875 -28.75 C 10.617188 -28.75 10.910156 -28.71875 11.171875 -28.65625 C 11.429688 -28.601562 11.691406 -28.535156 11.953125 -28.453125 L 11.671875 -27.625 C 11.453125 -27.695312 11.234375 -27.753906 11.015625 -27.796875 C 10.796875 -27.847656 10.554688 -27.875 10.296875 -27.875 C 9.242188 -27.875 8.328125 -27.523438 7.546875 -26.828125 C 6.765625 -26.128906 6.375 -25.171875 6.375 -23.953125 L 6.375 -20.90625 Z M 10.890625 -20.90625 "/></g></g></g><g fill="#000000" fill-opacity="1"><g transform="translate(642.227342, 445.073689)"><g><path d="M 11.109375 0.4375 C 9.460938 0.4375 7.984375 -0.0351562 6.671875 -0.984375 C 5.367188 -1.929688 4.335938 -3.222656 3.578125 -4.859375 C 2.828125 -6.503906 2.453125 -8.351562 2.453125 -10.40625 C 2.453125 -12.457031 2.828125 -14.300781 3.578125 -15.9375 C 4.335938 -17.570312 5.367188 -18.863281 6.671875 -19.8125 C 7.984375 -20.757812 9.460938 -21.234375 11.109375 -21.234375 C 12.742188 -21.234375 14.210938 -20.753906 15.515625 -19.796875 C 16.816406 -18.847656 17.847656 -17.554688 18.609375 -15.921875 C 19.378906 -14.285156 19.765625 -12.445312 19.765625 -10.40625 C 19.765625 -8.351562 19.382812 -6.503906 18.625 -4.859375 C 17.863281 -3.222656 16.828125 -1.929688 15.515625 -0.984375 C 14.210938 -0.0351562 12.742188 0.4375 11.109375 0.4375 Z M 11.109375 -0.4375 C 12.585938 -0.4375 13.910156 -0.867188 15.078125 -1.734375 C 16.253906 -2.609375 17.179688 -3.796875 17.859375 -5.296875 C 18.546875 -6.804688 18.890625 -8.507812 18.890625 -10.40625 C 18.890625 -12.289062 18.546875 -13.984375 17.859375 -15.484375 C 17.179688 -16.984375 16.253906 -18.171875 15.078125 -19.046875 C 13.910156 -19.921875 12.585938 -20.359375 11.109375 -20.359375 C 9.640625 -20.359375 8.316406 -19.921875 7.140625 -19.046875 C 5.960938 -18.171875 5.03125 -16.984375 4.34375 -15.484375 C 3.664062 -13.984375 3.328125 -12.289062 3.328125 -10.40625 C 3.328125 -8.507812 3.664062 -6.804688 4.34375 -5.296875 C 5.019531 -3.796875 5.945312 -2.609375 7.125 -1.734375 C 8.300781 -0.867188 9.628906 -0.4375 11.109375 -0.4375 Z M 11.109375 -0.4375 "/></g></g></g><g fill="#000000" fill-opacity="1"><g transform="translate(664.443038, 445.073689)"><g><path d="M 3.703125 0 L 3.703125 -20.90625 L 4.578125 -20.90625 L 4.578125 -17.578125 L 4.6875 -17.578125 C 5.175781 -18.671875 5.976562 -19.539062 7.09375 -20.1875 C 8.21875 -20.84375 9.5 -21.171875 10.9375 -21.171875 C 11.394531 -21.171875 11.820312 -21.132812 12.21875 -21.0625 C 12.625 -21 13 -20.910156 13.34375 -20.796875 L 13.015625 -19.984375 C 12.410156 -20.203125 11.71875 -20.3125 10.9375 -20.3125 C 9.707031 -20.3125 8.613281 -20.039062 7.65625 -19.5 C 6.695312 -18.96875 5.941406 -18.226562 5.390625 -17.28125 C 4.847656 -16.34375 4.578125 -15.265625 4.578125 -14.046875 L 4.578125 0 Z M 3.703125 0 "/></g></g></g><g fill="#000000" fill-opacity="1"><g transform="translate(678.327859, 445.073689)"><g/></g></g><g fill="#000000" fill-opacity="1"><g transform="translate(689.108986, 445.073689)"><g><path d="M 4.578125 -14.046875 L 4.578125 0 L 3.703125 0 L 3.703125 -27.875 L 4.578125 -27.875 L 4.578125 -17.578125 L 4.6875 -17.578125 C 5.175781 -18.671875 5.976562 -19.539062 7.09375 -20.1875 C 8.21875 -20.84375 9.5 -21.171875 10.9375 -21.171875 C 12.34375 -21.171875 13.578125 -20.867188 14.640625 -20.265625 C 15.710938 -19.660156 16.550781 -18.820312 17.15625 -17.75 C 17.769531 -16.675781 18.078125 -15.441406 18.078125 -14.046875 L 18.078125 0 L 17.203125 0 L 17.203125 -14.046875 C 17.203125 -15.898438 16.617188 -17.40625 15.453125 -18.5625 C 14.296875 -19.726562 12.789062 -20.3125 10.9375 -20.3125 C 9.707031 -20.3125 8.613281 -20.039062 7.65625 -19.5 C 6.695312 -18.96875 5.941406 -18.226562 5.390625 -17.28125 C 4.847656 -16.34375 4.578125 -15.265625 4.578125 -14.046875 Z M 4.578125 -14.046875 "/></g></g></g><g fill="#000000" fill-opacity="1"><g transform="translate(710.889113, 445.073689)"><g><path d="M 11.546875 0.4375 C 9.722656 0.4375 8.125 -0.0351562 6.75 -0.984375 C 5.382812 -1.941406 4.328125 -3.238281 3.578125 -4.875 C 2.828125 -6.507812 2.453125 -8.351562 2.453125 -10.40625 C 2.453125 -12.445312 2.828125 -14.285156 3.578125 -15.921875 C 4.335938 -17.554688 5.367188 -18.847656 6.671875 -19.796875 C 7.984375 -20.753906 9.460938 -21.234375 11.109375 -21.234375 C 12.734375 -21.234375 14.1875 -20.78125 15.46875 -19.875 C 16.757812 -18.976562 17.78125 -17.78125 18.53125 -16.28125 C 19.28125 -14.78125 19.65625 -13.128906 19.65625 -11.328125 L 19.65625 -10.453125 L 3.328125 -10.453125 C 3.328125 -8.628906 3.644531 -6.957031 4.28125 -5.4375 C 4.925781 -3.925781 5.859375 -2.710938 7.078125 -1.796875 C 8.304688 -0.890625 9.796875 -0.4375 11.546875 -0.4375 C 12.828125 -0.4375 13.90625 -0.660156 14.78125 -1.109375 C 15.664062 -1.566406 16.367188 -2.085938 16.890625 -2.671875 C 17.421875 -3.265625 17.816406 -3.769531 18.078125 -4.1875 L 18.78125 -3.703125 C 18.46875 -3.171875 18.003906 -2.582031 17.390625 -1.9375 C 16.773438 -1.300781 15.984375 -0.742188 15.015625 -0.265625 C 14.054688 0.203125 12.898438 0.4375 11.546875 0.4375 Z M 3.34375 -11.328125 L 18.78125 -11.328125 C 18.78125 -13.003906 18.4375 -14.523438 17.75 -15.890625 C 17.0625 -17.253906 16.132812 -18.335938 14.96875 -19.140625 C 13.8125 -19.953125 12.523438 -20.359375 11.109375 -20.359375 C 9.734375 -20.359375 8.476562 -19.960938 7.34375 -19.171875 C 6.21875 -18.390625 5.300781 -17.316406 4.59375 -15.953125 C 3.882812 -14.597656 3.46875 -13.054688 3.34375 -11.328125 Z M 3.34375 -11.328125 "/></g></g></g><g fill="#000000" fill-opacity="1"><g transform="translate(732.995917, 445.073689)"><g><path d="M 4.578125 -27.875 L 4.578125 0 L 3.703125 0 L 3.703125 -27.875 Z M 4.578125 -27.875 "/></g></g></g><g fill="#000000" fill-opacity="1"><g transform="translate(741.272346, 445.073689)"><g><path d="M 3.59375 7.84375 L 3.59375 -20.90625 L 4.46875 -20.90625 L 4.46875 -15.578125 L 4.578125 -15.578125 C 5.140625 -17.304688 6.039062 -18.679688 7.28125 -19.703125 C 8.519531 -20.722656 9.976562 -21.234375 11.65625 -21.234375 C 13.300781 -21.234375 14.722656 -20.757812 15.921875 -19.8125 C 17.128906 -18.863281 18.0625 -17.570312 18.71875 -15.9375 C 19.375 -14.300781 19.703125 -12.457031 19.703125 -10.40625 C 19.703125 -8.351562 19.367188 -6.507812 18.703125 -4.875 C 18.046875 -3.238281 17.113281 -1.941406 15.90625 -0.984375 C 14.695312 -0.0351562 13.28125 0.4375 11.65625 0.4375 C 9.988281 0.4375 8.523438 -0.0664062 7.265625 -1.078125 C 6.015625 -2.097656 5.117188 -3.484375 4.578125 -5.234375 L 4.46875 -5.234375 L 4.46875 7.84375 Z M 4.46875 -10.40625 C 4.46875 -8.507812 4.757812 -6.8125 5.34375 -5.3125 C 5.925781 -3.8125 6.753906 -2.625 7.828125 -1.75 C 8.910156 -0.875 10.1875 -0.4375 11.65625 -0.4375 C 13.125 -0.4375 14.394531 -0.875 15.46875 -1.75 C 16.539062 -2.625 17.367188 -3.8125 17.953125 -5.3125 C 18.546875 -6.8125 18.84375 -8.507812 18.84375 -10.40625 C 18.84375 -12.289062 18.550781 -13.984375 17.96875 -15.484375 C 17.382812 -16.984375 16.554688 -18.171875 15.484375 -19.046875 C 14.410156 -19.921875 13.132812 -20.359375 11.65625 -20.359375 C 10.175781 -20.359375 8.894531 -19.921875 7.8125 -19.046875 C 6.738281 -18.171875 5.910156 -16.984375 5.328125 -15.484375 C 4.753906 -13.984375 4.46875 -12.289062 4.46875 -10.40625 Z M 4.46875 -10.40625 "/></g></g></g><g fill="#000000" fill-opacity="1"><g transform="translate(763.433639, 445.073689)"><g><path d="M 4.84375 0.15625 C 4.570312 0.15625 4.335938 0.0625 4.140625 -0.125 C 3.953125 -0.3125 3.859375 -0.539062 3.859375 -0.8125 C 3.859375 -1.082031 3.953125 -1.3125 4.140625 -1.5 C 4.335938 -1.695312 4.570312 -1.796875 4.84375 -1.796875 C 5.113281 -1.796875 5.34375 -1.695312 5.53125 -1.5 C 5.726562 -1.3125 5.828125 -1.082031 5.828125 -0.8125 C 5.828125 -0.539062 5.726562 -0.3125 5.53125 -0.125 C 5.34375 0.0625 5.113281 0.15625 4.84375 0.15625 Z M 4.84375 0.15625 "/></g></g></g><g fill="#000000" fill-opacity="1"><g transform="translate(773.127248, 445.073689)"><g/></g></g></svg>