<svg width="145" height="158" viewBox="0 0 145 158" fill="none" xmlns="http://www.w3.org/2000/svg">
<path d="M54.375 131.083V71.5001H90.625V131.083M18.125 53.6251L72.5 11.9167L126.875 53.6251V119.167C126.875 122.327 125.602 125.358 123.336 127.593C121.07 129.828 117.996 131.083 114.792 131.083H30.2083C27.0036 131.083 23.9302 129.828 21.6641 127.593C19.3981 125.358 18.125 122.327 18.125 119.167V53.6251Z" stroke="#1E1E1E" stroke-width="4" stroke-linecap="round" stroke-linejoin="round"/>
<path d="M9.31783 149H8.26101C8.19851 148.696 8.08913 148.429 7.93288 148.199C7.77947 147.969 7.59197 147.776 7.37038 147.619C7.15163 147.46 6.90874 147.341 6.64169 147.261C6.37465 147.182 6.09624 147.142 5.80646 147.142C5.27805 147.142 4.79936 147.276 4.37038 147.543C3.94425 147.81 3.60476 148.203 3.35192 148.723C3.10192 149.243 2.97692 149.881 2.97692 150.636C2.97692 151.392 3.10192 152.03 3.35192 152.55C3.60476 153.07 3.94425 153.463 4.37038 153.73C4.79936 153.997 5.27805 154.131 5.80646 154.131C6.09624 154.131 6.37465 154.091 6.64169 154.011C6.90874 153.932 7.15163 153.814 7.37038 153.658C7.59197 153.499 7.77947 153.304 7.93288 153.074C8.08913 152.841 8.19851 152.574 8.26101 152.273H9.31783C9.23828 152.719 9.0934 153.118 8.88317 153.47C8.67294 153.822 8.41158 154.122 8.09908 154.369C7.78658 154.614 7.43572 154.8 7.04652 154.928C6.66016 155.055 6.2468 155.119 5.80646 155.119C5.06215 155.119 4.40021 154.938 3.82067 154.574C3.24112 154.21 2.78516 153.693 2.45277 153.023C2.12038 152.352 1.95419 151.557 1.95419 150.636C1.95419 149.716 2.12038 148.92 2.45277 148.25C2.78516 147.58 3.24112 147.062 3.82067 146.699C4.40021 146.335 5.06215 146.153 5.80646 146.153C6.2468 146.153 6.66016 146.217 7.04652 146.345C7.43572 146.473 7.78658 146.661 8.09908 146.908C8.41158 147.152 8.67294 147.45 8.88317 147.803C9.0934 148.152 9.23828 148.551 9.31783 149ZM11.3835 155H10.2756L13.4801 146.273H14.571L17.7756 155H16.6676L14.0597 147.653H13.9915L11.3835 155ZM11.7926 151.591H16.2585V152.528H11.7926V151.591ZM17.6381 147.21V146.273H24.1836V147.21H21.4393V155H20.3825V147.21H17.6381ZM32.4741 149H31.4173C31.3548 148.696 31.2454 148.429 31.0891 148.199C30.9357 147.969 30.7482 147.776 30.5266 147.619C30.3079 147.46 30.065 147.341 29.7979 147.261C29.5309 147.182 29.2525 147.142 28.9627 147.142C28.4343 147.142 27.9556 147.276 27.5266 147.543C27.1005 147.81 26.761 148.203 26.5082 148.723C26.2582 149.243 26.1332 149.881 26.1332 150.636C26.1332 151.392 26.2582 152.03 26.5082 152.55C26.761 153.07 27.1005 153.463 27.5266 153.73C27.9556 153.997 28.4343 154.131 28.9627 154.131C29.2525 154.131 29.5309 154.091 29.7979 154.011C30.065 153.932 30.3079 153.814 30.5266 153.658C30.7482 153.499 30.9357 153.304 31.0891 153.074C31.2454 152.841 31.3548 152.574 31.4173 152.273H32.4741C32.3945 152.719 32.2496 153.118 32.0394 153.47C31.8292 153.822 31.5678 154.122 31.2553 154.369C30.9428 154.614 30.592 154.8 30.2028 154.928C29.8164 155.055 29.4031 155.119 28.9627 155.119C28.2184 155.119 27.5565 154.938 26.9769 154.574C26.3974 154.21 25.9414 153.693 25.609 153.023C25.2766 152.352 25.1104 151.557 25.1104 150.636C25.1104 149.716 25.2766 148.92 25.609 148.25C25.9414 147.58 26.3974 147.062 26.9769 146.699C27.5565 146.335 28.2184 146.153 28.9627 146.153C29.4031 146.153 29.8164 146.217 30.2028 146.345C30.592 146.473 30.9428 146.661 31.2553 146.908C31.5678 147.152 31.8292 147.45 32.0394 147.803C32.2496 148.152 32.3945 148.551 32.4741 149ZM34.1818 155V146.273H35.2386V150.159H39.892V146.273H40.9489V155H39.892V151.097H35.2386V155H34.1818ZM46.4396 146.273H47.701L50.6669 153.517H50.7692L53.7351 146.273H54.9964V155H54.0078V148.369H53.9226L51.1953 155H50.2408L47.5135 148.369H47.4283V155H46.4396V146.273ZM57.1154 155V146.273H62.3825V147.21H58.1722V150.159H62.1097V151.097H58.1722V154.062H62.4506V155H57.1154ZM67.185 147.21V146.273H73.7305V147.21H70.9862V155H69.9293V147.21H67.185ZM82.3619 150.636C82.3619 151.557 82.1957 152.352 81.8633 153.023C81.5309 153.693 81.0749 154.21 80.4954 154.574C79.9158 154.938 79.2539 155.119 78.5096 155.119C77.7653 155.119 77.1033 154.938 76.5238 154.574C75.9442 154.21 75.4883 153.693 75.1559 153.023C74.8235 152.352 74.6573 151.557 74.6573 150.636C74.6573 149.716 74.8235 148.92 75.1559 148.25C75.4883 147.58 75.9442 147.062 76.5238 146.699C77.1033 146.335 77.7653 146.153 78.5096 146.153C79.2539 146.153 79.9158 146.335 80.4954 146.699C81.0749 147.062 81.5309 147.58 81.8633 148.25C82.1957 148.92 82.3619 149.716 82.3619 150.636ZM81.3391 150.636C81.3391 149.881 81.2127 149.243 80.9599 148.723C80.7099 148.203 80.3704 147.81 79.9414 147.543C79.5153 147.276 79.038 147.142 78.5096 147.142C77.9812 147.142 77.5025 147.276 77.0735 147.543C76.6474 147.81 76.3079 148.203 76.055 148.723C75.805 149.243 75.68 149.881 75.68 150.636C75.68 151.392 75.805 152.03 76.055 152.55C76.3079 153.07 76.6474 153.463 77.0735 153.73C77.5025 153.997 77.9812 154.131 78.5096 154.131C79.038 154.131 79.5153 153.997 79.9414 153.73C80.3704 153.463 80.7099 153.07 80.9599 152.55C81.2127 152.03 81.3391 151.392 81.3391 150.636ZM93.4798 149C93.386 148.713 93.2624 148.456 93.109 148.229C92.9585 147.999 92.7781 147.803 92.5678 147.641C92.3604 147.479 92.1246 147.355 91.8604 147.27C91.5962 147.185 91.3065 147.142 90.9911 147.142C90.4741 147.142 90.0039 147.276 89.5806 147.543C89.1573 147.81 88.8207 148.203 88.5707 148.723C88.3207 149.243 88.1957 149.881 88.1957 150.636C88.1957 151.392 88.3221 152.03 88.5749 152.55C88.8278 153.07 89.1701 153.463 89.6019 153.73C90.0337 153.997 90.5195 154.131 91.0593 154.131C91.5593 154.131 91.9996 154.024 92.3803 153.811C92.7638 153.595 93.0621 153.291 93.2752 152.899C93.4911 152.504 93.5991 152.04 93.5991 151.506L93.9229 151.574H91.2979V150.636H94.6218V151.574C94.6218 152.293 94.4684 152.918 94.1616 153.449C93.8576 153.98 93.4371 154.392 92.9002 154.685C92.3661 154.974 91.7525 155.119 91.0593 155.119C90.2866 155.119 89.6076 154.938 89.0224 154.574C88.44 154.21 87.9854 153.693 87.6587 153.023C87.3349 152.352 87.1729 151.557 87.1729 150.636C87.1729 149.946 87.2653 149.325 87.4499 148.774C87.6374 148.22 87.9016 147.749 88.2425 147.359C88.5835 146.97 88.9869 146.672 89.4528 146.464C89.9187 146.257 90.4315 146.153 90.9911 146.153C91.4513 146.153 91.8803 146.223 92.2781 146.362C92.6786 146.499 93.0352 146.693 93.3477 146.946C93.663 147.196 93.9258 147.496 94.136 147.845C94.3462 148.192 94.4911 148.577 94.5707 149H93.4798ZM103.795 150.636C103.795 151.557 103.629 152.352 103.297 153.023C102.964 153.693 102.509 154.21 101.929 154.574C101.349 154.938 100.688 155.119 99.9432 155.119C99.1989 155.119 98.5369 154.938 97.9574 154.574C97.3778 154.21 96.9219 153.693 96.5895 153.023C96.2571 152.352 96.0909 151.557 96.0909 150.636C96.0909 149.716 96.2571 148.92 96.5895 148.25C96.9219 147.58 97.3778 147.062 97.9574 146.699C98.5369 146.335 99.1989 146.153 99.9432 146.153C100.688 146.153 101.349 146.335 101.929 146.699C102.509 147.062 102.964 147.58 103.297 148.25C103.629 148.92 103.795 149.716 103.795 150.636ZM102.773 150.636C102.773 149.881 102.646 149.243 102.393 148.723C102.143 148.203 101.804 147.81 101.375 147.543C100.949 147.276 100.472 147.142 99.9432 147.142C99.4148 147.142 98.9361 147.276 98.5071 147.543C98.081 147.81 97.7415 148.203 97.4886 148.723C97.2386 149.243 97.1136 149.881 97.1136 150.636C97.1136 151.392 97.2386 152.03 97.4886 152.55C97.7415 153.07 98.081 153.463 98.5071 153.73C98.9361 153.997 99.4148 154.131 99.9432 154.131C100.472 154.131 100.949 153.997 101.375 153.73C101.804 153.463 102.143 153.07 102.393 152.55C102.646 152.03 102.773 151.392 102.773 150.636ZM108.947 155V146.273H110.004V150.159H114.658V146.273H115.714V155H114.658V151.097H110.004V155H108.947ZM125.194 150.636C125.194 151.557 125.028 152.352 124.695 153.023C124.363 153.693 123.907 154.21 123.327 154.574C122.748 154.938 122.086 155.119 121.342 155.119C120.597 155.119 119.935 154.938 119.356 154.574C118.776 154.21 118.32 153.693 117.988 153.023C117.656 152.352 117.489 151.557 117.489 150.636C117.489 149.716 117.656 148.92 117.988 148.25C118.32 147.58 118.776 147.062 119.356 146.699C119.935 146.335 120.597 146.153 121.342 146.153C122.086 146.153 122.748 146.335 123.327 146.699C123.907 147.062 124.363 147.58 124.695 148.25C125.028 148.92 125.194 149.716 125.194 150.636ZM124.171 150.636C124.171 149.881 124.045 149.243 123.792 148.723C123.542 148.203 123.202 147.81 122.773 147.543C122.347 147.276 121.87 147.142 121.342 147.142C120.813 147.142 120.335 147.276 119.906 147.543C119.479 147.81 119.14 148.203 118.887 148.723C118.637 149.243 118.512 149.881 118.512 150.636C118.512 151.392 118.637 152.03 118.887 152.55C119.14 153.07 119.479 153.463 119.906 153.73C120.335 153.997 120.813 154.131 121.342 154.131C121.87 154.131 122.347 153.997 122.773 153.73C123.202 153.463 123.542 153.07 123.792 152.55C124.045 152.03 124.171 151.392 124.171 150.636ZM126.971 146.273H128.232L131.198 153.517H131.3L134.266 146.273H135.528V155H134.539V148.369H134.454L131.727 155H130.772L128.045 148.369H127.96V155H126.971V146.273ZM137.647 155V146.273H142.914V147.21H138.703V150.159H142.641V151.097H138.703V154.062H142.982V155H137.647Z" fill="black"/>
</svg>
